<svg width="761" height="588" viewBox="0 0 761 588" fill="none" xmlns="http://www.w3.org/2000/svg">
<g opacity="0.8">
<g clip-path="url(#clip0)">
<path d="M144.129 412.874L2.93708 327.912V324.264L264.155 337.176V340.793L144.129 412.874Z" fill="#176637"/>
<path d="M144.129 409.226L2.93708 324.264L122.994 252.214L264.155 337.176L144.129 409.226Z" fill="#27AE60"/>
<path d="M49.2642 313.572L138.255 261.51L226.397 313.731L137.407 366.745L49.2642 313.572Z" fill="#EFF3F3"/>
<path d="M42.9662 264.238C41.3311 264.238 39.9382 264.936 39.9382 265.793V313.382C39.9388 313.502 39.9633 313.62 40.0102 313.729C40.0572 313.839 40.1255 313.936 40.2107 314.016V314.016C40.5217 314.338 40.9082 314.568 41.3311 314.683V314.683C41.8416 314.843 42.3729 314.918 42.9056 314.905C44.5407 314.905 45.9335 314.207 45.9335 313.35V265.761C45.9335 264.936 44.6012 264.238 42.9662 264.238Z" fill="#D35400"/>
<path d="M42.9661 244.917C39.4583 244.659 35.9917 245.837 33.2973 248.205C30.6028 250.572 28.8911 253.944 28.523 257.608V273.471V278.991C28.523 283.179 32.0656 291.681 42.9661 291.681C46.4722 291.932 49.9347 290.751 52.6274 288.385C55.3202 286.019 57.0339 282.652 57.4093 278.991V257.576C57.5304 253.357 53.8364 244.917 42.9661 244.917Z" fill="#43761C"/>
<path d="M55.0173 253.071C54.6842 257.1 49.3551 259.987 43.0873 259.416C36.8195 258.845 32.0051 255.323 32.3382 251.294C32.6712 247.265 38.0004 244.346 44.2682 244.949C50.5359 245.552 55.3201 249.042 55.0173 253.071Z" fill="#7BA525"/>
<path d="M52.2619 249.772C51.9288 251.485 48.7798 252.278 45.2068 251.516C41.6339 250.755 39.151 248.82 39.3024 247.107C39.4538 245.393 42.7845 244.632 46.3574 245.362C49.9304 246.091 52.5647 248.058 52.2619 249.772Z" fill="#9BBE23"/>
<path d="M49.1734 247.551C49.1734 248.217 47.8411 248.502 46.4785 248.217C45.116 247.931 44.147 247.202 44.2682 246.535C44.3893 245.869 45.5702 245.615 46.9327 245.901C48.2953 246.186 49.2945 246.916 49.1734 247.551Z" fill="#C3DE59"/>
<path d="M42.9661 285.558C33.519 285.558 29.5222 282.195 28.5533 279.784C28.9469 284.162 32.7015 291.618 42.9661 291.618C46.3594 291.838 49.7096 290.729 52.3671 288.508C55.0245 286.286 56.7999 283.109 57.3487 279.594C56.3193 282.132 51.9591 285.558 42.9661 285.558Z" fill="#396910"/>
<path d="M50.0818 283.972C49.7596 284.005 49.4351 284.005 49.1128 283.972V293.553C49.105 293.8 49.0058 294.034 48.8363 294.206C48.6668 294.377 48.4402 294.473 48.2045 294.473H44.4498C44.2291 294.467 44.0182 294.376 43.8566 294.218C43.695 294.061 43.5937 293.847 43.5717 293.617C42.5159 294.196 41.3423 294.501 40.1502 294.505C40.3577 295.541 40.8976 296.471 41.6799 297.14C42.4622 297.81 43.4397 298.179 44.4498 298.185H48.2045C49.3769 298.185 50.5014 297.697 51.3304 296.828C52.1595 295.96 52.6252 294.782 52.6252 293.553V283.623C51.795 283.852 50.9403 283.969 50.0818 283.972Z" fill="#D35400"/>
<path d="M34.1852 281.529H35.1844V291.237C35.1844 291.481 35.2769 291.715 35.4416 291.888C35.6063 292.06 35.8296 292.157 36.0625 292.157H39.8171C40.0378 292.151 40.2487 292.06 40.4103 291.902C40.5719 291.745 40.6732 291.531 40.6952 291.301C41.7577 291.862 42.9271 292.165 44.1168 292.189C43.9083 293.222 43.3673 294.148 42.5844 294.812C41.8016 295.476 40.8245 295.838 39.8171 295.837H36.0625C35.4834 295.842 34.9092 295.726 34.373 295.496C33.8369 295.267 33.3493 294.929 32.9384 294.501C32.5275 294.074 32.2014 293.565 31.9788 293.005C31.7563 292.445 31.6417 291.844 31.6417 291.237V281.212C32.4759 281.415 33.3288 281.521 34.1852 281.529V281.529Z" fill="#D35400"/>
<path d="M51.1415 268.617C49.0942 268.464 47.0704 269.15 45.4951 270.528C43.9198 271.906 42.9156 273.871 42.6936 276.009V285.336V288.509C42.7731 289.58 43.0563 290.624 43.5265 291.579C43.9967 292.534 44.6444 293.38 45.4315 294.069C46.2187 294.758 47.1293 295.275 48.1099 295.589C49.0905 295.904 50.1213 296.01 51.1415 295.901C53.1887 296.053 55.2126 295.368 56.7879 293.99C58.3632 292.611 59.3674 290.647 59.5894 288.509V275.818C59.3755 273.692 58.3667 271.741 56.7837 270.391C55.2007 269.042 53.1721 268.404 51.1415 268.617V268.617Z" fill="#61913D"/>
<path d="M58.1965 273.249C58.0149 275.628 54.8961 277.31 51.2021 277.024C47.508 276.738 44.7223 274.645 44.904 272.265C45.0857 269.886 48.2347 268.236 51.8985 268.49C55.5623 268.744 58.3782 271.028 58.1965 273.249Z" fill="#9BC04E"/>
<path d="M56.5918 271.44C56.4101 272.455 54.5631 272.9 52.4738 272.455C50.3846 272.011 48.81 270.869 48.9917 269.886C49.1734 268.902 51.0204 268.426 53.14 268.87C55.2595 269.315 56.7735 270.457 56.5918 271.44Z" fill="#BAD950"/>
<path d="M54.775 270.076C54.775 270.457 53.9878 270.647 53.2005 270.457C52.4132 270.266 51.8379 269.854 51.8985 269.473C51.9591 269.093 52.6555 268.934 53.4427 269.093C54.23 269.251 54.8356 269.759 54.775 270.076Z" fill="#E4F991"/>
<path d="M51.1415 292.284C45.6004 292.284 43.2689 290.317 42.6936 288.921C42.9871 290.989 44.0273 292.86 45.5995 294.147C47.1717 295.434 49.1556 296.039 51.1415 295.837C53.0847 295.978 55.0102 295.373 56.559 294.135C58.1079 292.898 59.1742 291.112 59.5591 289.112C58.9535 290.381 56.4101 292.284 51.1415 292.284Z" fill="#55842C"/>
<path d="M33.0346 270.076C31.3089 269.954 29.6073 270.553 28.3022 271.742C26.997 272.931 26.1945 274.614 26.0704 276.421V284.099V286.764C26.1384 287.645 26.3739 288.502 26.7628 289.286C27.1517 290.07 27.6863 290.765 28.3351 291.33C28.9839 291.894 29.7338 292.317 30.5409 292.574C31.3479 292.83 32.1958 292.915 33.0346 292.824C34.7139 292.949 36.3742 292.388 37.6671 291.258C38.96 290.128 39.7848 288.517 39.9685 286.764V276.421C39.9354 275.519 39.7266 274.633 39.3551 273.818C38.9835 273.003 38.4569 272.276 37.8076 271.682C37.1584 271.088 36.4001 270.639 35.5793 270.363C34.7585 270.086 33.8926 269.989 33.0346 270.076V270.076Z" fill="#61913D"/>
<path d="M38.8179 274.137C38.6665 276.072 36.0928 277.31 33.0951 277.31C30.0975 277.31 27.766 275.279 27.9174 273.249C28.0688 271.218 30.6425 269.917 33.6402 270.076C36.6378 270.235 38.9996 272.202 38.8179 274.137Z" fill="#9BC04E"/>
<path d="M37.5159 272.551C37.3645 273.375 35.8505 273.724 34.1246 273.407C32.3987 273.09 31.0967 272.075 31.2783 271.282C31.46 270.488 32.9437 270.076 34.6696 270.425C36.3955 270.774 37.6673 271.726 37.5159 272.551Z" fill="#BAD950"/>
<path d="M36.0019 271.472C36.0019 271.789 35.3661 271.916 34.7302 271.789C34.0943 271.662 33.5796 271.313 33.6401 270.996C33.7007 270.679 34.276 270.52 34.9422 270.679C35.6083 270.837 36.0625 271.155 36.0019 271.472Z" fill="#E4F991"/>
<path d="M33.0346 289.778C28.4927 289.778 26.5548 288.16 26.1006 286.986C26.3273 288.693 27.1762 290.241 28.4691 291.306C29.762 292.37 31.3983 292.869 33.0346 292.697C34.6634 292.807 36.2736 292.281 37.5542 291.221C38.8347 290.16 39.6949 288.64 39.9685 286.954C39.3629 288.128 37.3645 289.778 33.0346 289.778Z" fill="#55842C"/>
<path d="M137.407 375.311L226.397 322.297V313.731L137.407 366.745V375.311Z" fill="#AAB7B7"/>
<path d="M137.407 375.311L49.2642 322.138V313.572L137.407 366.745V375.311Z" fill="#BDC3C7"/>
<path d="M95.5913 252.088V339.905L137.71 365.19V302.881L95.5913 252.088Z" fill="#AAB7B7"/>
<path d="M53.4427 206.212V314.619L95.5913 339.905V194.568L53.4427 206.212Z" fill="#AAB7B7"/>
<path d="M137.71 365.19V302.881L223.188 251.548V313.889L137.71 365.19Z" fill="#DBDBDB"/>
<path d="M95.5913 256.878V194.568L181.069 143.236V205.577L95.5913 256.878Z" fill="#DBDBDB"/>
<path d="M93.1084 251.326L137.71 305.07L226.882 251.548L182.311 197.773L93.1084 251.326Z" fill="#3D576D"/>
<path d="M93.1084 251.326V257.1L134.106 306.497L137.71 305.07L93.1084 251.326Z" fill="#566472"/>
<path d="M194.665 286.478L210.38 276.992L211.258 277.785L195.543 312.271L194.665 311.478V286.478Z" fill="#EFF3F3"/>
<path d="M195.543 287.303L211.258 277.785V302.785L195.543 312.271V287.303Z" fill="#BDC3C7"/>
<path d="M209.411 301.675V281.148L197.36 288.414V308.909L209.411 301.675Z" fill="#566472"/>
<path d="M210.592 286.415V288.382L196.391 296.948V294.981L210.592 286.415Z" fill="#BDC3C7"/>
<path d="M210.592 293.585V295.552L196.391 304.118V302.151L210.592 293.585Z" fill="#BDC3C7"/>
<path d="M202.568 284.258L204.354 283.179V305.45L202.568 306.497V284.258Z" fill="#BDC3C7"/>
<path d="M163.507 305.292L179.253 295.774L180.1 296.599L164.386 331.085L163.507 330.26V305.292Z" fill="#EFF3F3"/>
<path d="M164.386 306.085L180.1 296.599V321.567L164.386 331.085V306.085Z" fill="#BDC3C7"/>
<path d="M178.253 320.457V299.962L166.233 307.227V327.722L178.253 320.457Z" fill="#566472"/>
<path d="M179.434 305.197V307.195L165.264 315.761V313.763L179.434 305.197Z" fill="#BDC3C7"/>
<path d="M179.434 312.367V314.365L165.264 322.931V320.964L179.434 312.367Z" fill="#BDC3C7"/>
<path d="M171.441 303.039L173.227 301.961V324.232L171.441 325.311V303.039Z" fill="#BDC3C7"/>
<path d="M149.367 177.246L165.112 167.76L165.96 168.585L150.245 203.071L149.367 202.246V177.246Z" fill="#EFF3F3"/>
<path d="M150.245 178.071L165.96 168.585V193.553L150.245 203.071V178.071Z" fill="#BDC3C7"/>
<path d="M164.113 192.443V171.916L152.092 179.181V199.708L164.113 192.443Z" fill="#566472"/>
<path d="M165.294 177.183V179.15L151.123 187.716V185.749L165.294 177.183Z" fill="#BDC3C7"/>
<path d="M165.294 184.353V186.32L151.123 194.886V192.919L165.294 184.353Z" fill="#BDC3C7"/>
<path d="M157.3 175.025L159.087 173.947V196.186L157.3 197.265V175.025Z" fill="#BDC3C7"/>
<path d="M118.21 196.06L133.955 186.542L134.833 187.367L119.088 221.853L118.21 221.028V196.06Z" fill="#EFF3F3"/>
<path d="M119.088 196.853L134.833 187.367V212.335L119.088 221.853V196.853Z" fill="#BDC3C7"/>
<path d="M132.956 211.225V190.73L120.935 197.995V218.49L132.956 211.225Z" fill="#566472"/>
<path d="M134.167 195.964V197.931L119.966 206.497V204.53L134.167 195.964Z" fill="#BDC3C7"/>
<path d="M134.167 203.166V205.133L119.966 213.699V211.7L134.167 203.166Z" fill="#BDC3C7"/>
<path d="M126.143 193.807L127.929 192.728V215L126.143 216.079V193.807Z" fill="#BDC3C7"/>
<path d="M123.993 311.796L108.278 302.31L107.4 303.103L123.115 337.589L123.993 336.796V311.796Z" fill="#EFF3F3"/>
<path d="M123.115 312.62L107.4 303.103V328.103L123.115 337.589V312.62Z" fill="#BDC3C7"/>
<path d="M109.247 326.992V306.466L121.268 313.731V334.226L109.247 326.992Z" fill="#566472"/>
<path d="M108.066 311.732V313.699L122.267 322.265V320.298L108.066 311.732Z" fill="#BDC3C7"/>
<path d="M108.066 318.902V320.869L122.267 329.435V327.468L108.066 318.902Z" fill="#BDC3C7"/>
<path d="M116.09 309.543L114.304 308.496V330.736L116.09 331.815V309.543Z" fill="#BDC3C7"/>
<path d="M80.482 220.933L64.7671 211.447L63.889 212.272L79.6342 246.726L80.482 245.901V220.933Z" fill="#EFF3F3"/>
<path d="M79.6342 221.758L63.889 212.272V237.24L79.6342 246.726V221.758Z" fill="#BDC3C7"/>
<path d="M65.7361 236.129V215.603L77.7569 222.868V243.395L65.7361 236.129Z" fill="#566472"/>
<path d="M64.5552 220.869V222.836L78.7561 231.402V229.435L64.5552 220.869Z" fill="#BDC3C7"/>
<path d="M64.5552 228.039V230.006L78.7561 238.572V236.605L64.5552 228.039Z" fill="#BDC3C7"/>
<path d="M72.5489 218.68L70.7927 217.633V239.873L72.5489 240.952V218.68Z" fill="#BDC3C7"/>
<path d="M80.4821 261.256L70.3385 255.197L69.4907 255.99L79.6342 320.33L80.4821 319.537V261.256Z" fill="#EFF3F3"/>
<path d="M79.6342 262.081L69.4907 255.99V314.27L79.6342 320.33V262.081Z" fill="#BDC3C7"/>
<path d="M71.3377 313.16V259.353L77.7569 263.192V316.999L71.3377 313.16Z" fill="#566472"/>
<path d="M70.399 266.237V268.236L78.9983 273.376V271.409L70.399 266.237Z" fill="#BDC3C7"/>
<path d="M70.399 273.407V275.406L78.9983 280.546V278.579L70.399 273.407Z" fill="#BDC3C7"/>
<path d="M70.399 281.021V282.988L78.9983 288.128V286.161L70.399 281.021Z" fill="#BDC3C7"/>
<path d="M70.399 288.604V290.571L78.9983 295.742V293.744L70.399 288.604Z" fill="#BDC3C7"/>
<path d="M70.399 296.186V298.185L78.9983 303.325V301.358L70.399 296.186Z" fill="#BDC3C7"/>
<path d="M70.399 303.801V305.768L78.9983 310.907V308.94L70.399 303.801Z" fill="#BDC3C7"/>
<path d="M111.972 282.925L101.496 276.548L100.618 277.373L111.094 295.393L111.972 294.6V282.925Z" fill="#EFF3F3"/>
<path d="M111.094 283.718L100.618 277.373V289.048L111.094 295.393V283.718Z" fill="#BDC3C7"/>
<path d="M102.465 287.906V280.704L109.247 284.86V292.062L102.465 287.906Z" fill="#566472"/>
<path d="M49.567 209.765L94.259 197.392L184.915 142.982V140L49.567 206.751V209.765Z" fill="#566472"/>
<path d="M49.567 206.751L94.259 194.41L184.915 140L140.223 152.341L49.567 206.751Z" fill="#3D576D"/>
<path d="M100.012 296.25L84.2669 286.764L83.4191 287.557L99.134 343.553L100.012 342.728V296.25Z" fill="#EFF3F3"/>
<path d="M99.134 297.043L83.4191 287.557V342.887L99.134 352.373V297.043Z" fill="#BDC3C7"/>
<path d="M85.2661 343.966V290.92L97.287 298.185V351.231L85.2661 343.966Z" fill="#C1382A"/>
<path d="M65.9177 348.598L82.1776 339.302L90.353 356.592L84.4789 359.987L65.9177 348.598Z" fill="#EFF3F3"/>
<path d="M84.4789 362.842L100.739 353.23V350.374L84.4789 359.987V362.842Z" fill="#AAB7B7"/>
<path d="M84.4789 362.842L65.9177 351.485V348.598L84.4789 359.987V362.842Z" fill="#BDC3C7"/>
<path d="M71.2166 342.538L82.1777 336.383L95.6519 350.533L89.7475 353.928L71.2166 342.538Z" fill="#EFF3F3"/>
<path d="M89.7475 357.925L100.739 350.311V347.455L89.7475 353.928V357.925Z" fill="#AAB7B7"/>
<path d="M89.7475 356.783L71.2166 345.425V342.538L89.7475 353.928V356.783Z" fill="#BDC3C7"/>
<path d="M76.2732 336.605L82.1777 333.528L100.739 344.568L94.8343 347.995L76.2732 336.605Z" fill="#EFF3F3"/>
<path d="M94.8344 352.341L100.739 347.455V344.568L94.8344 347.995V352.341Z" fill="#AAB7B7"/>
<path d="M94.8344 350.85L76.2732 339.492V336.605L94.8344 347.995V350.85Z" fill="#BDC3C7"/>
<path d="M48.1439 292.76C46.6299 292.76 45.3582 293.395 45.3582 294.219V338.636C45.3591 338.751 45.384 338.864 45.431 338.968C45.4781 339.073 45.5462 339.165 45.6307 339.238C45.9239 339.545 46.2897 339.764 46.6905 339.873C47.1593 340.033 47.6509 340.108 48.1439 340.095C49.6881 340.095 50.8993 339.46 50.8993 338.636V294.219C50.8993 293.395 49.6881 292.76 48.1439 292.76Z" fill="#D35400"/>
<path d="M47.8411 268.268C41.1191 268.268 29.9158 303.166 29.9158 310.527C29.9158 315.73 34.3366 326.167 47.8411 326.167C52.1784 326.49 56.4668 325.043 59.8081 322.127C63.1495 319.212 65.2846 315.054 65.7663 310.527C65.7663 303.008 52.7766 268.268 47.8411 268.268Z" fill="#43761C"/>
<path d="M48.4467 311.32C49.9909 296.631 47.8108 268.426 47.8108 268.426C41.0888 268.426 29.6433 303.325 29.8855 310.685C30.0975 318.553 47.508 320.615 48.4467 311.32Z" fill="#7BA525"/>
<path d="M38.5151 309.289C35.1541 309.289 32.0051 307.417 32.0051 305.641C32.0051 299.613 39.3932 279.943 44.6315 271.409C47.6594 267.76 45.0857 296.789 43.7837 306.307C43.39 309.194 39.6657 309.289 38.5151 309.257V309.289Z" fill="#9BBE23"/>
<path d="M49.1734 319.886C37.6067 321.377 32.1262 317.919 32.1262 317.919C33.8049 320.638 36.1475 322.837 38.9108 324.287C41.6741 325.737 44.7575 326.387 47.8411 326.167C52.0431 326.441 56.193 325.075 59.4915 322.334C62.7899 319.592 65.0035 315.669 65.7058 311.32C64.4038 314.492 57.2579 318.839 49.1734 319.886Z" fill="#396910"/>
<path d="M43.1781 283.591C41.543 288.54 39.3629 292.284 38.5757 291.967C37.7884 291.65 38.2123 287.335 39.8474 282.449C41.4825 277.563 43.5415 273.756 44.4498 274.073C45.3582 274.391 44.8132 278.642 43.1781 283.591Z" fill="#C3DE59"/>
<path d="M14.5643 288.667C13.3228 288.667 12.3539 289.175 12.3539 289.841V325.216C12.3601 325.391 12.4243 325.56 12.5356 325.692V325.692C12.7634 325.946 13.0587 326.122 13.3834 326.199V326.199C13.7664 326.318 14.1651 326.372 14.5643 326.358C15.7754 326.358 16.7747 325.85 16.7747 325.216V289.841C16.7747 289.112 15.7754 288.667 14.5643 288.667Z" fill="#D35400"/>
<path d="M14.322 269.093C9.08375 269.093 0 296.853 0 302.849C0 307.005 3.51238 315.539 14.322 315.539C17.8117 315.788 21.2564 314.601 23.9248 312.232C26.5932 309.862 28.2752 306.497 28.6138 302.849C28.6138 296.853 18.1675 269.093 14.322 269.093Z" fill="#43761C"/>
<path d="M14.8368 303.357C15.4026 291.936 15.2205 280.487 14.2918 269.093C9.08375 269.156 0 296.853 0 302.849C0 308.845 14.0495 310.939 14.8368 303.357Z" fill="#7BA525"/>
<path d="M6.87336 301.802C4.17852 301.802 1.66534 300.279 1.66534 298.851C1.66534 294.061 7.72118 278.357 11.7483 271.504C14.1404 268.617 12.1117 291.745 11.0822 299.423C10.7794 301.738 7.78174 301.834 6.87336 301.802V301.802Z" fill="#9BBE23"/>
<path d="M15.3818 310.336C6.05584 311.542 1.7562 308.782 1.7562 308.782C3.09959 310.955 4.97284 312.713 7.18209 313.873C9.39135 315.033 11.8564 315.553 14.3221 315.381C17.6701 315.604 20.9786 314.522 23.6113 312.343C26.244 310.164 28.015 307.043 28.5835 303.579C27.554 305.958 21.8313 309.511 15.3818 310.336Z" fill="#396910"/>
<path d="M10.5977 281.339C9.2957 285.304 7.56979 288.287 6.90364 288.033C6.2375 287.779 6.63113 284.353 7.93314 280.387C9.23514 276.421 10.9611 273.439 11.5969 273.693C12.2328 273.947 11.8694 277.405 10.5977 281.339Z" fill="#C3DE59"/>
<path d="M153.213 354.023C151.668 354.023 150.457 354.657 150.457 355.482V399.898C150.466 400.114 150.553 400.318 150.699 400.469C150.998 400.769 151.362 400.987 151.759 401.104V401.104C152.233 401.238 152.722 401.302 153.213 401.294C154.757 401.294 155.968 400.66 155.968 399.867V355.45C155.968 354.657 154.757 354.023 153.213 354.023Z" fill="#D35400"/>
<path d="M152.91 309.797C146.188 309.797 134.985 364.27 134.985 371.789C134.985 376.992 139.284 387.462 152.91 387.462C157.247 387.776 161.532 386.32 164.867 383.398C168.203 380.477 170.33 376.317 170.805 371.789C170.805 364.27 157.876 309.797 152.91 309.797Z" fill="#43761C"/>
<path d="M153.546 372.424C155.09 357.766 152.88 309.987 152.88 309.987C146.188 309.987 134.712 364.27 134.985 371.789C135.166 379.816 152.577 381.878 153.546 372.424Z" fill="#7BA525"/>
<path d="M143.584 370.552C140.223 370.552 137.044 368.68 137.074 366.903C137.074 360.907 144.946 320.869 150.185 312.335C153.213 308.718 150.185 357.988 148.852 367.601C148.459 370.488 144.734 370.774 143.584 370.552Z" fill="#9BBE23"/>
<path d="M154.242 381.117C142.675 382.608 137.195 379.181 137.195 379.181C138.872 381.904 141.214 384.107 143.977 385.563C146.74 387.019 149.824 387.674 152.91 387.462C157.104 387.744 161.251 386.39 164.549 383.661C167.848 380.931 170.065 377.018 170.775 372.677C169.563 375.66 162.296 380.101 154.242 381.117Z" fill="#396910"/>
<path d="M149.549 329.657C148.005 337.398 145.734 343.458 144.432 343.172C143.13 342.887 143.342 336.383 144.886 328.642C146.43 320.901 148.701 314.809 150.003 315.095C151.305 315.381 151.093 321.884 149.549 329.657Z" fill="#C3DE59"/>
<path d="M233.755 289.112C232.06 289.112 230.727 289.841 230.727 290.761V340.539C230.739 340.788 230.836 341.024 231 341.205V341.205C231.347 341.533 231.761 341.772 232.211 341.903C232.741 342.072 233.292 342.158 233.846 342.157C235.572 342.157 236.874 341.428 236.874 340.507V290.603C236.904 289.683 235.481 289.112 233.755 289.112Z" fill="#D35400"/>
<path d="M233.755 268.68C230.088 268.427 226.47 269.664 223.65 272.134C220.831 274.603 219.028 278.116 218.616 281.942V298.629V304.435C218.616 308.813 222.34 317.665 233.755 317.665C237.419 317.926 241.038 316.697 243.858 314.232C246.678 311.768 248.482 308.259 248.895 304.435V281.91C248.925 277.563 245.261 268.68 233.755 268.68Z" fill="#43761C"/>
<path d="M246.412 277.246C246.079 281.466 240.356 284.511 233.907 284.035C227.457 283.56 222.249 279.594 222.612 275.501C222.976 271.409 228.668 268.236 235.118 268.712C241.567 269.188 246.745 272.995 246.412 277.246Z" fill="#7BA525"/>
<path d="M243.505 273.788C243.202 275.565 239.872 276.39 236.117 275.628C232.362 274.867 229.607 272.773 230.061 270.996C230.515 269.219 233.695 268.395 237.449 269.156C241.204 269.917 243.868 271.98 243.505 273.788Z" fill="#9BBE23"/>
<path d="M240.265 271.44C240.265 272.106 238.903 272.424 237.479 272.138C236.056 271.853 234.997 271.06 235.118 270.393C235.239 269.727 236.511 269.41 237.934 269.695C239.357 269.981 240.386 270.774 240.265 271.44Z" fill="#C3DE59"/>
<path d="M233.755 311.32C223.854 311.32 219.645 307.798 218.616 305.26C219.009 309.86 222.945 317.697 233.755 317.697C237.308 317.946 240.822 316.806 243.619 314.497C246.416 312.188 248.296 308.874 248.895 305.197C247.774 307.735 243.202 311.32 233.755 311.32Z" fill="#396910"/>
<path d="M241.234 309.67C240.892 309.701 240.547 309.701 240.205 309.67V319.854C240.205 319.989 240.179 320.122 240.128 320.246C240.077 320.369 240.002 320.481 239.909 320.573C239.815 320.665 239.704 320.736 239.583 320.782C239.462 320.827 239.334 320.846 239.205 320.837H235.269C235.036 320.83 234.813 320.732 234.645 320.561C234.477 320.391 234.376 320.162 234.361 319.917C233.249 320.529 232.014 320.855 230.758 320.869C230.973 321.955 231.54 322.93 232.362 323.629C233.184 324.328 234.21 324.709 235.269 324.708H239.205C239.815 324.712 240.419 324.59 240.983 324.347C241.547 324.105 242.059 323.747 242.49 323.296C242.921 322.844 243.262 322.307 243.494 321.716C243.725 321.126 243.842 320.493 243.838 319.854V309.321C242.987 309.547 242.112 309.664 241.234 309.67V309.67Z" fill="#D35400"/>
<path d="M242.233 293.553C240.091 293.4 237.976 294.12 236.328 295.563C234.681 297.005 233.629 299.059 233.392 301.294V311.098V314.492C233.475 315.614 233.772 316.706 234.264 317.706C234.756 318.705 235.434 319.592 236.257 320.313C237.081 321.034 238.034 321.576 239.06 321.905C240.087 322.235 241.165 322.347 242.233 322.233C244.414 322.447 246.587 321.756 248.285 320.308C249.984 318.861 251.073 316.772 251.317 314.492V301.294C251.227 300.152 250.918 299.041 250.408 298.027C249.899 297.013 249.198 296.118 248.35 295.395C247.501 294.672 246.522 294.136 245.471 293.82C244.42 293.503 243.319 293.412 242.233 293.553Z" fill="#61913D"/>
<path d="M249.743 298.629C249.561 301.072 246.26 302.849 242.415 302.595C238.57 302.341 235.602 300.057 235.814 297.582C236.026 295.108 239.205 293.268 243.142 293.553C247.078 293.839 249.954 296.059 249.743 298.629Z" fill="#9BC04E"/>
<path d="M248.047 296.504C247.865 297.551 245.927 298.058 243.717 297.582C241.507 297.106 239.902 295.933 240.114 294.886C240.326 293.839 242.233 293.363 244.444 293.807C246.654 294.251 248.289 295.457 248.047 296.504Z" fill="#BAD950"/>
<path d="M246.139 295.14C246.139 295.552 245.352 295.742 244.504 295.552C243.656 295.362 243.081 294.917 243.142 294.537C243.202 294.156 243.959 293.966 244.777 294.124C245.594 294.283 246.23 294.759 246.139 295.14Z" fill="#E4F991"/>
<path d="M242.233 318.49C236.45 318.49 233.997 316.428 233.392 314.936C233.693 317.108 234.778 319.075 236.423 320.433C238.069 321.79 240.148 322.435 242.233 322.233C244.35 322.433 246.46 321.789 248.143 320.431C249.827 319.072 250.96 317.099 251.317 314.905C250.53 316.396 247.865 318.49 242.233 318.49Z" fill="#55842C"/>
<path d="M209.835 364.302C214.952 364.302 218.918 361.605 218.918 359.702V353.579C218.831 352.427 218.526 351.305 218.02 350.278C217.514 349.251 216.817 348.341 215.972 347.599C215.126 346.858 214.148 346.3 213.094 345.96C212.04 345.619 210.932 345.502 209.835 345.615C207.632 345.454 205.455 346.194 203.761 347.679C202.067 349.163 200.988 351.278 200.751 353.579V359.924C200.751 361.637 204.536 364.302 209.835 364.302Z" fill="#61913D"/>
<path d="M217.404 350.755C217.223 353.293 213.862 355.101 209.925 354.816C205.989 354.53 202.87 352.214 203.173 349.708C203.476 347.202 206.716 345.362 210.652 345.647C214.588 345.933 217.616 348.217 217.404 350.755Z" fill="#9BC04E"/>
<path d="M215.679 348.661C215.497 349.74 213.498 350.247 211.258 349.771C209.017 349.296 207.352 348.09 207.533 347.011C207.715 345.933 209.714 345.425 211.984 345.901C214.255 346.377 215.891 347.614 215.679 348.661Z" fill="#BAD950"/>
<path d="M213.741 347.265C213.741 347.678 212.923 347.868 212.075 347.678C211.227 347.487 210.592 347.043 210.652 346.631C210.713 346.218 211.47 346.06 212.348 346.218C213.226 346.377 213.801 346.853 213.741 347.265Z" fill="#E4F991"/>
<path d="M194.059 375.216C200.842 375.216 206.171 371.631 206.171 369.093V360.971C206.054 359.439 205.645 357.947 204.969 356.583C204.293 355.219 203.363 354.01 202.234 353.029C201.106 352.047 199.801 351.312 198.397 350.867C196.993 350.422 195.518 350.276 194.059 350.438C191.131 350.205 188.231 351.174 185.971 353.139C183.712 355.104 182.269 357.912 181.948 360.971V369.188C182.008 371.599 187.004 375.216 194.059 375.216Z" fill="#43761C"/>
<path d="M204.112 357.227C203.839 360.59 199.388 363.001 194.18 362.62C188.972 362.24 184.915 359.194 185.097 355.831C185.278 352.468 189.82 350.057 195.058 350.438C200.297 350.818 204.384 353.864 204.112 357.227Z" fill="#7BA525"/>
<path d="M201.841 354.467C201.568 355.894 198.813 356.561 195.785 355.926C192.757 355.292 190.759 353.674 191.031 352.246C191.304 350.818 194.059 350.184 196.905 350.787C199.752 351.389 202.083 353.039 201.841 354.467Z" fill="#9BBE23"/>
<path d="M199.237 352.563C199.237 353.103 198.147 353.325 197.027 353.103C195.906 352.881 195.028 352.246 195.149 351.707C195.27 351.167 196.239 350.914 197.36 351.167C198.48 351.421 199.328 352.087 199.237 352.563Z" fill="#C3DE59"/>
<path d="M180.191 380.07C184.794 380.07 188.336 377.627 188.336 375.945V370.457C188.261 369.423 187.988 368.416 187.535 367.494C187.083 366.572 186.458 365.755 185.699 365.089C184.94 364.424 184.062 363.925 183.116 363.621C182.17 363.317 181.176 363.214 180.191 363.318C178.216 363.175 176.265 363.838 174.747 365.169C173.228 366.5 172.261 368.395 172.046 370.457V376.009C172.046 377.658 175.437 380.07 180.191 380.07Z" fill="#61913D"/>
<path d="M187.004 367.887C186.822 370.171 183.976 371.821 180.282 371.535C176.588 371.25 174.014 369.251 174.226 366.967C174.438 364.683 177.406 363.065 180.948 363.318C184.491 363.572 187.186 365.634 187.004 367.887Z" fill="#9BC04E"/>
<path d="M185.43 366.047C185.278 366.999 183.492 367.443 181.493 367.03C179.495 366.618 177.951 365.507 178.163 364.556C178.375 363.604 180.1 363.128 182.129 363.572C184.158 364.016 185.642 365.254 185.43 366.047Z" fill="#BAD950"/>
<path d="M183.704 364.778C183.704 365.158 182.947 365.317 182.19 365.158C181.433 365 180.858 364.587 180.948 364.207C181.039 363.826 181.675 363.699 182.432 363.858C183.189 364.016 183.764 364.429 183.704 364.778Z" fill="#E4F991"/>
<path d="M103.373 367.538C108.49 367.538 112.457 364.841 112.457 362.938V356.815C112.37 355.663 112.064 354.541 111.558 353.514C111.052 352.487 110.356 351.577 109.51 350.835C108.664 350.094 107.686 349.537 106.632 349.196C105.579 348.855 104.471 348.738 103.373 348.851C101.17 348.69 98.9931 349.43 97.2994 350.915C95.6056 352.399 94.5268 354.514 94.2894 356.815V363.16C94.2894 364.873 98.0742 367.538 103.373 367.538Z" fill="#61913D"/>
<path d="M110.943 353.991C110.731 356.529 107.4 358.337 103.464 358.052C99.5276 357.766 96.4997 355.482 96.6814 352.944C96.863 350.406 100.254 348.598 104.191 348.883C108.127 349.169 111.155 351.453 110.943 353.991Z" fill="#9BC04E"/>
<path d="M109.217 351.929C109.035 352.976 107.037 353.483 104.796 353.007C102.556 352.532 100.89 351.326 101.072 350.247C101.254 349.169 103.252 348.693 105.523 349.137C107.794 349.581 109.429 350.85 109.217 351.929Z" fill="#BAD950"/>
<path d="M107.279 350.501C107.279 350.914 106.462 351.104 105.583 350.945C104.705 350.787 104.1 350.279 104.191 349.867C104.281 349.454 105.008 349.391 105.977 349.391C106.946 349.391 107.34 350.12 107.279 350.501Z" fill="#E4F991"/>
<path d="M219.009 335.4C222.522 335.4 225.247 333.528 225.247 332.227V328.007C225.19 327.215 224.982 326.442 224.636 325.734C224.29 325.026 223.812 324.398 223.231 323.887C222.65 323.376 221.977 322.991 221.252 322.756C220.527 322.521 219.764 322.441 219.009 322.519C217.489 322.403 215.985 322.911 214.816 323.935C213.646 324.959 212.902 326.419 212.741 328.007V332.259C212.741 333.528 215.345 335.4 219.009 335.4Z" fill="#43761C"/>
<path d="M224.217 326.04C224.217 327.785 221.765 329.213 219.07 328.864C216.375 328.515 214.286 327.087 214.407 325.342C214.528 323.598 216.859 322.17 219.554 322.519C222.249 322.868 224.369 324.327 224.217 326.04Z" fill="#7BA525"/>
<path d="M223.036 324.613C223.036 325.374 221.522 325.691 220.008 325.374C218.494 325.057 217.314 324.2 217.465 323.471C217.616 322.741 218.949 322.392 220.493 322.709C222.037 323.026 223.157 324.01 223.036 324.613Z" fill="#9BBE23"/>
<path d="M221.704 323.661C221.704 323.947 221.129 324.073 220.523 323.947C219.918 323.82 219.524 323.502 219.554 323.217C219.585 322.931 220.13 322.836 220.735 322.931C221.341 323.026 221.734 323.375 221.704 323.661Z" fill="#C3DE59"/>
<path d="M209.683 341.65C213.196 341.65 215.921 339.778 215.921 338.477V334.257C215.86 333.467 215.65 332.698 215.302 331.994C214.954 331.29 214.476 330.666 213.895 330.157C213.314 329.649 212.643 329.268 211.92 329.035C211.196 328.802 210.436 328.722 209.683 328.801C208.168 328.684 206.668 329.188 205.499 330.205C204.331 331.223 203.584 332.675 203.415 334.257V338.54C203.415 339.873 205.898 341.65 209.683 341.65Z" fill="#43761C"/>
<path d="M214.982 332.322C214.982 334.067 212.529 335.304 209.835 335.114C207.14 334.924 205.02 333.337 205.172 331.593C205.323 329.848 207.624 328.61 210.319 328.801C213.014 328.991 214.982 330.577 214.982 332.322Z" fill="#7BA525"/>
<path d="M213.71 330.895C213.71 331.624 212.196 331.973 210.682 331.656C209.169 331.339 207.988 330.482 208.139 329.752C208.29 329.023 209.623 328.674 211.167 328.991C212.711 329.308 213.831 330.165 213.71 330.895Z" fill="#9BBE23"/>
<path d="M212.348 329.943C212.348 330.197 211.803 330.323 211.197 330.228C210.592 330.133 210.198 329.784 210.228 329.499C210.259 329.213 210.804 329.086 211.379 329.213C211.954 329.34 212.408 329.657 212.348 329.943Z" fill="#C3DE59"/>
<path d="M200.357 347.9C203.87 347.9 206.595 346.059 206.595 344.727V340.507C206.53 339.719 206.317 338.951 205.968 338.25C205.619 337.548 205.141 336.925 204.561 336.418C203.981 335.91 203.311 335.528 202.589 335.294C201.868 335.059 201.109 334.977 200.357 335.051C198.852 334.98 197.375 335.5 196.216 336.509C195.057 337.518 194.299 338.944 194.089 340.507V344.79C194.089 346.218 196.815 347.9 200.357 347.9Z" fill="#43761C"/>
<path d="M205.565 338.572C205.565 340.317 203.113 341.586 200.418 341.396C197.723 341.205 195.603 339.619 195.755 337.874C195.906 336.129 198.207 334.86 200.902 335.051C203.597 335.241 205.717 336.7 205.565 338.572Z" fill="#7BA525"/>
<path d="M204.384 337.145C204.384 337.906 202.87 338.223 201.356 337.906C199.842 337.589 198.662 336.732 198.813 336.002C198.964 335.273 200.297 334.924 201.841 335.241C203.385 335.558 204.505 336.415 204.384 337.145Z" fill="#9BBE23"/>
<path d="M203.052 336.193C203.052 336.478 202.477 336.605 201.871 336.478C201.266 336.351 200.872 336.034 200.902 335.749C200.933 335.463 201.478 335.336 202.053 335.463C202.628 335.59 203.082 335.907 203.052 336.193Z" fill="#C3DE59"/>
</g>
<g clip-path="url(#clip1)">
<path d="M380.192 275.888L521.384 190.926V187.31H239V190.926L380.192 275.888Z" fill="#176637"/>
<path d="M380.192 272.24L521.384 187.31L380.192 102.348L239 187.31L380.192 272.24Z" fill="#27AE60"/>
<path d="M293.109 161.675L382.099 109.581L470.242 161.834L381.252 214.848L293.109 161.675Z" fill="#EFF3F3"/>
<path d="M381.252 223.382L470.242 170.368V161.834L381.252 214.848V223.382Z" fill="#C1382A"/>
<path d="M381.252 223.382L293.109 170.209V161.675L381.252 214.848V223.382Z" fill="#D35400"/>
<path d="M381.554 213.293V105.076L338.83 53.585L296.076 53.7753V161.961L381.554 213.293Z" fill="#AAB7B7"/>
<path d="M381.554 213.293V105.076L467.032 53.7753V161.961L381.554 213.293Z" fill="#DBDBDB"/>
<path d="M336.953 53.5215L381.554 107.265L470.726 53.7436L426.156 0L336.953 53.5215Z" fill="#D35400"/>
<path d="M336.953 53.5215L292.382 53.7436L381.554 0.222081L426.156 0L336.953 53.5215Z" fill="#C1382A"/>
<path d="M336.953 53.5215L292.382 53.7436L295.985 57.519L335.318 57.3286L377.951 108.693L381.554 107.265L336.953 53.5215Z" fill="#DBDBDB"/>
<path d="M438.509 134.581L454.224 125.063L455.102 125.888L439.357 160.374L438.509 159.549V134.581Z" fill="#EFF3F3"/>
<path d="M439.357 135.374L455.102 125.888V150.857L439.357 160.374V135.374Z" fill="#BDC3C7"/>
<path d="M453.255 149.746V129.251L441.204 136.485V157.011L453.255 149.746Z" fill="#566472"/>
<path d="M454.436 134.486V136.485L440.235 145.051V143.052L454.436 134.486Z" fill="#BDC3C7"/>
<path d="M454.436 141.656V143.655L440.235 152.221V150.254L454.436 141.656Z" fill="#BDC3C7"/>
<path d="M446.412 132.329L448.199 131.25V153.521L446.412 154.6V132.329Z" fill="#BDC3C7"/>
<path d="M407.352 153.363L423.097 143.877L423.945 144.67L408.23 179.156L407.352 178.331V153.363Z" fill="#EFF3F3"/>
<path d="M408.23 154.188L423.945 144.67V169.67L408.23 179.156V154.188Z" fill="#BDC3C7"/>
<path d="M422.098 168.528V148.033L410.077 155.298V175.793L422.098 168.528Z" fill="#566472"/>
<path d="M423.279 153.268V155.266L409.078 163.832V161.865L423.279 153.268Z" fill="#BDC3C7"/>
<path d="M423.279 160.469V162.436L409.078 171.002V169.035L423.279 160.469Z" fill="#BDC3C7"/>
<path d="M415.285 151.11L417.072 150.032V172.303L415.285 173.382V151.11Z" fill="#BDC3C7"/>
<path d="M438.509 85.0888L454.224 75.571L455.102 76.3959L439.357 110.882L438.509 110.057V85.0888Z" fill="#EFF3F3"/>
<path d="M439.357 85.8819L455.102 76.3959V101.364L439.357 110.882V85.8819Z" fill="#BDC3C7"/>
<path d="M453.255 100.254V79.7589L441.204 87.0241V107.519L453.255 100.254Z" fill="#566472"/>
<path d="M454.436 84.9936V86.9606L440.235 95.5266V93.5596L454.436 84.9936Z" fill="#BDC3C7"/>
<path d="M454.436 92.1636V94.1624L440.235 102.728V100.73L454.436 92.1636Z" fill="#BDC3C7"/>
<path d="M446.412 82.8362L448.199 81.7576V104.029L446.412 105.076V82.8362Z" fill="#BDC3C7"/>
<path d="M407.352 103.871L423.097 94.3845L423.945 95.1776L408.23 129.664L407.352 128.839V103.871Z" fill="#EFF3F3"/>
<path d="M408.23 104.664L423.945 95.1776V120.178L408.23 129.664V104.664Z" fill="#BDC3C7"/>
<path d="M422.098 119.035V98.5405L410.077 105.806V126.301L422.098 119.035Z" fill="#566472"/>
<path d="M423.279 103.775V105.774L409.078 114.34V112.341L423.279 103.775Z" fill="#BDC3C7"/>
<path d="M423.279 110.977V112.944L409.078 121.51V119.543L423.279 110.977Z" fill="#BDC3C7"/>
<path d="M415.285 101.618L417.072 100.539V122.811L415.285 123.89V101.618Z" fill="#BDC3C7"/>
<path d="M344.583 144.67L328.838 135.152L327.991 135.977L343.705 191.942L344.583 191.148V144.67Z" fill="#EFF3F3"/>
<path d="M343.705 145.463L327.991 135.977V191.275L343.705 200.793V145.463Z" fill="#D35400"/>
<path d="M329.837 192.386V139.34L341.858 146.605V199.619L329.837 192.386Z" fill="#C1382A"/>
<path d="M368.746 159.296L353.001 149.81L352.153 150.634L367.868 185.089L368.746 184.296V159.296Z" fill="#EFF3F3"/>
<path d="M367.868 160.12L352.153 150.634V175.603L367.868 185.089V160.12Z" fill="#BDC3C7"/>
<path d="M354 174.492V153.966L366.021 161.231V181.726L354 174.492Z" fill="#566472"/>
<path d="M352.819 159.232V161.199L367.02 169.765V167.798L352.819 159.232Z" fill="#BDC3C7"/>
<path d="M352.819 166.402V168.369L367.02 176.935V174.968L352.819 166.402Z" fill="#BDC3C7"/>
<path d="M360.813 157.075L359.057 155.996V178.268L360.813 179.315V157.075Z" fill="#BDC3C7"/>
<path d="M321.057 130.901L305.311 121.415L304.464 122.208L320.178 156.694L321.057 155.901V130.901Z" fill="#EFF3F3"/>
<path d="M320.178 131.726L304.464 122.208V147.208L320.178 156.694V131.726Z" fill="#BDC3C7"/>
<path d="M306.311 146.098V125.571L318.331 132.836V153.331L306.311 146.098Z" fill="#566472"/>
<path d="M305.13 130.837V132.804L319.3 141.37V139.403L305.13 130.837Z" fill="#BDC3C7"/>
<path d="M305.13 138.008V139.975L319.3 148.541V146.574L305.13 138.008Z" fill="#BDC3C7"/>
<path d="M313.123 128.648L311.337 127.601V149.841L313.123 150.92V128.648Z" fill="#BDC3C7"/>
<path d="M338.316 89.5938L322.571 80.1078L321.723 80.9327L337.438 115.387L338.316 114.594V89.5938Z" fill="#EFF3F3"/>
<path d="M337.438 90.4187L321.723 80.9327V105.901L337.438 115.387V90.4187Z" fill="#BDC3C7"/>
<path d="M323.57 104.791V84.2639L335.591 91.5291V112.024L323.57 104.791Z" fill="#566472"/>
<path d="M322.389 89.5304V91.4974L336.59 100.063V98.0964L322.389 89.5304Z" fill="#BDC3C7"/>
<path d="M322.389 96.7004V98.6674L336.59 107.233V105.266L322.389 96.7004Z" fill="#BDC3C7"/>
<path d="M330.383 87.3731L328.596 86.2944V108.534L330.383 109.613V87.3731Z" fill="#BDC3C7"/>
<path d="M352.093 97.8743L336.378 88.3883L335.53 89.1815L351.245 123.667L352.093 122.874V97.8743Z" fill="#EFF3F3"/>
<path d="M351.245 98.6992L335.53 89.1814V114.181L351.245 123.667V98.6992Z" fill="#BDC3C7"/>
<path d="M337.377 113.039V92.5444L349.398 99.8096V120.305L337.377 113.039Z" fill="#566472"/>
<path d="M336.166 97.8109V99.7779L350.367 108.344V106.377L336.166 97.8109Z" fill="#BDC3C7"/>
<path d="M336.166 104.981V106.948L350.367 115.514V113.547L336.166 104.981Z" fill="#BDC3C7"/>
<path d="M344.19 95.6218L342.403 94.5431V116.815L344.19 117.893V95.6218Z" fill="#BDC3C7"/>
<path d="M309.399 137.246V134.074L350.609 134.835V142.957L337.165 153.839L309.399 137.246Z" fill="#DBDBDB"/>
<path d="M309.399 134.074L322.813 118.242L350.609 134.835L337.165 150.634L309.399 134.074Z" fill="#D35400"/>
<path d="M438.661 171.7C440.235 171.7 441.507 172.367 441.507 173.16V218.433C441.504 218.547 441.479 218.66 441.432 218.764C441.385 218.868 441.318 218.96 441.235 219.035V219.035C440.936 219.335 440.572 219.553 440.175 219.67V219.67C439.681 219.811 439.172 219.885 438.661 219.892C437.117 219.892 435.845 219.226 435.845 218.401V173.16C435.815 172.367 437.117 171.7 438.661 171.7Z" fill="#D35400"/>
<path d="M438.994 126.523C445.837 126.523 457.161 182.17 457.161 189.975C457.161 195.273 452.68 205.837 438.994 205.837C425.883 205.837 420.826 195.146 420.826 189.975C420.675 182.17 433.907 126.523 438.994 126.523Z" fill="#43761C"/>
<path d="M438.328 190.355C436.753 175.381 438.994 126.554 438.994 126.554C445.837 126.554 457.464 182.043 457.161 189.721C457.01 198.033 439.327 200.158 438.328 190.355Z" fill="#7BA525"/>
<path d="M448.502 188.579C451.923 188.579 455.163 186.675 455.163 184.835C455.163 178.712 447.109 137.849 441.749 129.093C438.721 125.381 441.749 175.73 443.112 185.596C443.506 188.515 447.351 188.769 448.502 188.579V188.579Z" fill="#9BBE23"/>
<path d="M437.601 199.397C449.44 200.92 455.042 197.43 455.042 197.43C453.321 200.199 450.927 202.438 448.107 203.916C445.286 205.393 442.141 206.057 438.994 205.837C434.724 206.098 430.512 204.702 427.161 201.917C423.811 199.132 421.556 195.152 420.826 190.736C422.068 193.813 429.365 198.35 437.601 199.397Z" fill="#396910"/>
<path d="M442.415 146.764C443.96 154.727 446.321 160.914 447.654 160.628C448.986 160.343 448.774 153.68 447.2 145.749C445.625 137.817 443.263 131.631 441.961 131.916C440.659 132.202 440.841 138.864 442.415 146.764Z" fill="#C3DE59"/>
<path d="M404.476 193.782C406.05 193.782 407.322 194.448 407.322 195.273V240.514C407.321 240.629 407.296 240.743 407.249 240.847C407.202 240.951 407.134 241.043 407.049 241.117V241.117C406.756 241.445 406.377 241.676 405.959 241.783V241.783C405.477 241.928 404.978 242.002 404.476 242.005C402.901 242.005 401.66 241.339 401.66 240.514V195.273C401.66 194.448 402.901 193.782 404.476 193.782Z" fill="#D35400"/>
<path d="M404.778 168.782C411.652 168.782 422.946 204.251 422.946 211.929C422.946 217.259 418.465 227.792 404.778 227.792C400.389 228.083 396.059 226.602 392.68 223.651C389.301 220.701 387.129 216.506 386.611 211.929C386.49 204.251 399.722 168.782 404.778 168.782Z" fill="#43761C"/>
<path d="M404.143 212.563C402.568 197.589 404.809 168.782 404.809 168.782C411.652 168.782 423.279 204.251 422.976 211.929C422.916 220.146 405.142 222.271 404.143 212.563Z" fill="#7BA525"/>
<path d="M414.316 210.691C417.738 210.691 420.978 208.756 420.978 206.948C420.978 200.825 413.438 180.711 408.079 172.049C405.051 168.337 407.625 197.906 408.927 207.741C409.32 210.691 413.166 210.914 414.316 210.914V210.691Z" fill="#9BBE23"/>
<path d="M403.416 221.51C415.255 223.033 420.857 219.511 420.857 219.511C419.14 222.294 416.743 224.544 413.916 226.028C411.088 227.512 407.933 228.176 404.778 227.95C400.509 228.211 396.297 226.815 392.946 224.03C389.595 221.245 387.34 217.265 386.611 212.849C387.852 215.926 395.18 220.431 403.416 221.51Z" fill="#396910"/>
<path d="M409.563 184.422C411.228 189.499 413.317 193.306 414.256 192.988C415.195 192.671 414.619 188.261 412.954 183.217C411.289 178.172 409.199 174.302 408.261 174.651C407.322 175 407.897 179.378 409.563 184.422Z" fill="#C3DE59"/>
<path d="M486.563 132.678C488.349 132.678 489.59 133.439 489.59 134.359V185.406C489.586 185.666 489.488 185.915 489.318 186.104V186.104C488.978 186.449 488.562 186.7 488.107 186.834V186.834C487.557 187.007 486.985 187.092 486.411 187.087C484.655 187.087 483.232 186.326 483.232 185.406V134.359C483.383 133.439 484.806 132.678 486.563 132.678Z" fill="#D35400"/>
<path d="M486.593 111.992C490.343 111.715 494.051 112.971 496.936 115.497C499.821 118.023 501.66 121.623 502.065 125.539V142.766V148.667C502.065 153.173 498.281 162.214 486.593 162.214C482.839 162.492 479.128 161.237 476.238 158.712C473.348 156.186 471.503 152.587 471.09 148.667V125.539C471.09 121.034 474.905 111.992 486.593 111.992Z" fill="#43761C"/>
<path d="M473.664 120.717C473.997 125.032 479.719 128.141 486.441 127.633C493.163 127.126 498.311 123.255 497.978 118.94C497.645 114.626 491.922 111.516 485.2 111.992C478.478 112.468 473.3 116.37 473.664 120.717Z" fill="#7BA525"/>
<path d="M476.601 117.164C476.934 119.004 480.325 119.829 484.17 119.067C488.016 118.306 490.832 116.148 490.499 114.34C490.166 112.532 486.774 111.675 482.929 112.436C479.084 113.198 476.268 115.355 476.601 117.164Z" fill="#9BBE23"/>
<path d="M479.931 114.784C479.931 115.482 481.354 115.799 482.959 115.514C484.564 115.228 485.472 114.403 485.351 113.706C485.23 113.008 483.928 112.69 482.323 113.008C480.719 113.325 479.81 114.213 479.931 114.784Z" fill="#C3DE59"/>
<path d="M486.593 155.457C496.706 155.457 501.006 151.84 502.035 149.112C501.611 153.807 497.584 161.802 486.593 161.802C482.98 162.048 479.407 160.889 476.558 158.548C473.709 156.207 471.783 152.847 471.15 149.112C472.15 151.872 476.934 155.457 486.593 155.457Z" fill="#396910"/>
<path d="M478.932 153.839C479.284 153.887 479.64 153.887 479.992 153.839V164.277C479.992 164.408 480.017 164.539 480.066 164.66C480.115 164.782 480.187 164.892 480.277 164.983C480.368 165.075 480.475 165.147 480.592 165.194C480.71 165.242 480.835 165.264 480.961 165.26H484.988C485.221 165.253 485.444 165.154 485.612 164.984C485.78 164.814 485.881 164.584 485.896 164.34C487.046 164.937 488.307 165.262 489.59 165.292C489.374 166.403 488.797 167.402 487.959 168.119C487.12 168.836 486.07 169.227 484.988 169.226H480.961C480.338 169.23 479.721 169.105 479.144 168.858C478.567 168.611 478.043 168.247 477.601 167.787C477.159 167.327 476.809 166.78 476.569 166.178C476.33 165.575 476.207 164.929 476.207 164.277V153.49C477.099 153.719 478.014 153.836 478.932 153.839V153.839Z" fill="#D35400"/>
<path d="M477.812 137.373C480.01 137.211 482.183 137.947 483.876 139.425C485.569 140.903 486.651 143.01 486.896 145.304V155.457V158.629C486.804 159.778 486.496 160.897 485.989 161.92C485.481 162.943 484.784 163.85 483.939 164.588C483.093 165.326 482.116 165.881 481.064 166.219C480.013 166.558 478.907 166.674 477.812 166.561C475.612 166.731 473.435 165.998 471.74 164.519C470.045 163.039 468.965 160.927 468.728 158.629V145.304C468.815 144.154 469.121 143.033 469.627 142.008C470.133 140.983 470.83 140.074 471.676 139.335C472.523 138.596 473.501 138.042 474.555 137.705C475.609 137.368 476.716 137.255 477.812 137.373V137.373Z" fill="#61913D"/>
<path d="M470.242 142.481C470.454 145.019 473.785 146.827 477.721 146.542C481.657 146.256 484.685 143.972 484.473 141.434C484.261 138.896 480.931 137.088 476.994 137.373C473.058 137.659 470.03 139.943 470.242 142.481Z" fill="#9BC04E"/>
<path d="M471.968 140.419C472.18 141.466 474.148 141.973 476.389 141.529C478.629 141.085 480.295 139.816 480.113 138.737C479.931 137.659 477.933 137.183 475.692 137.659C473.452 138.134 471.756 139.34 471.968 140.419Z" fill="#BAD950"/>
<path d="M473.906 139.023C473.906 139.435 474.754 139.594 475.601 139.435C476.449 139.277 477.085 138.801 476.994 138.388C476.903 137.976 476.177 137.785 475.329 137.976C474.481 138.166 473.845 138.61 473.906 139.023Z" fill="#E4F991"/>
<path d="M477.812 162.849C483.868 162.849 486.229 160.755 486.896 159.232C486.587 161.46 485.47 163.478 483.779 164.866C482.087 166.255 479.95 166.907 477.812 166.688C475.681 166.845 473.57 166.166 471.89 164.781C470.211 163.397 469.084 161.408 468.728 159.2C469.424 160.723 472.15 162.849 477.812 162.849Z" fill="#55842C"/>
<path d="M343.705 214.879C338.467 214.879 334.41 212.119 334.41 210.184V203.839C334.504 202.665 334.821 201.522 335.342 200.477C335.862 199.433 336.575 198.507 337.441 197.754C338.306 197.001 339.305 196.436 340.381 196.092C341.456 195.747 342.586 195.631 343.705 195.749C345.947 195.587 348.162 196.337 349.888 197.845C351.614 199.352 352.719 201.499 352.971 203.839V210.184C352.971 212.151 349.125 214.879 343.705 214.879Z" fill="#61913D"/>
<path d="M335.893 201.047C336.105 203.617 339.527 205.488 343.554 205.203C347.581 204.917 350.67 202.57 350.458 199.968C350.246 197.367 346.824 195.527 342.797 195.812C338.77 196.098 335.893 198.445 335.893 201.047Z" fill="#9BC04E"/>
<path d="M337.71 198.921C337.922 200 339.951 200.508 342.252 200.063C344.553 199.619 346.249 198.287 346.037 197.208C345.825 196.129 343.796 195.622 341.495 196.098C339.194 196.574 337.498 197.811 337.71 198.921Z" fill="#BAD950"/>
<path d="M339.708 197.494C339.708 197.906 340.556 198.096 341.404 197.906C342.252 197.716 342.948 197.24 342.858 196.827C342.767 196.415 342.01 196.224 341.132 196.415C340.254 196.605 339.618 197.081 339.708 197.494Z" fill="#E4F991"/>
<path d="M359.814 226.047C352.88 226.047 347.49 222.367 347.49 219.702V211.485C347.49 207.9 350.518 200.698 359.814 200.698C362.815 200.457 365.787 201.447 368.104 203.46C370.42 205.473 371.899 208.35 372.228 211.485V219.892C372.228 222.398 367.02 226.047 359.814 226.047Z" fill="#43761C"/>
<path d="M349.519 207.646C349.791 211.104 354.364 213.547 359.693 213.166C365.022 212.785 369.14 209.676 368.777 206.218C368.413 202.76 363.962 200.317 358.603 200.73C353.243 201.142 349.246 204.219 349.519 207.646Z" fill="#7BA525"/>
<path d="M351.881 204.854C352.153 206.282 354.909 206.948 357.937 206.345C360.964 205.742 363.235 204.029 362.993 202.57C362.751 201.11 359.965 200.444 356.937 201.079C353.909 201.713 351.608 203.395 351.881 204.854Z" fill="#9BBE23"/>
<path d="M354.515 203.046C354.515 203.585 355.635 203.839 356.786 203.617C357.937 203.395 358.815 202.728 358.694 202.189C358.572 201.65 357.573 201.364 356.423 201.618C355.272 201.872 354.424 202.379 354.515 203.046Z" fill="#C3DE59"/>
<path d="M373.985 230.996C369.291 230.996 365.658 228.521 365.658 226.777V221.161C365.737 220.106 366.017 219.079 366.481 218.139C366.945 217.2 367.584 216.367 368.36 215.69C369.136 215.013 370.033 214.506 370.999 214.197C371.965 213.889 372.98 213.787 373.985 213.896C375.995 213.752 377.98 214.428 379.526 215.781C381.072 217.135 382.059 219.063 382.281 221.161V226.84C382.281 228.426 378.829 230.996 373.985 230.996Z" fill="#61913D"/>
<path d="M367.02 218.56C367.202 220.875 370.29 222.557 373.894 222.303C377.497 222.049 380.283 219.924 380.101 217.608C379.919 215.292 376.831 213.61 373.228 213.896C369.624 214.181 366.839 216.244 367.02 218.56Z" fill="#9BC04E"/>
<path d="M368.595 216.656C368.777 217.639 370.593 218.084 372.652 217.671C374.711 217.259 376.255 216.117 376.074 215.133C375.892 214.15 374.075 213.705 372.016 214.118C369.957 214.53 368.413 215.736 368.595 216.656Z" fill="#BAD950"/>
<path d="M370.381 215.387C370.381 215.768 371.138 215.926 371.926 215.768C372.713 215.609 373.288 215.165 373.228 214.784C373.167 214.403 372.471 214.245 371.683 214.403C370.896 214.562 370.321 215.006 370.381 215.387Z" fill="#E4F991"/>
<path d="M288.264 181.758C283.026 181.758 278.969 178.997 278.969 177.062V170.717C279.059 169.541 279.373 168.396 279.893 167.35C280.412 166.303 281.125 165.375 281.991 164.622C282.857 163.868 283.858 163.303 284.935 162.961C286.013 162.618 287.144 162.505 288.264 162.627C290.508 162.457 292.727 163.205 294.454 164.713C296.182 166.222 297.285 168.374 297.53 170.717V177.062C297.53 179.029 293.684 181.758 288.264 181.758Z" fill="#61913D"/>
<path d="M280.513 167.893C280.725 170.495 284.146 172.367 288.173 172.049C292.2 171.732 295.289 169.416 295.077 166.846C294.865 164.277 291.444 162.373 287.416 162.69C283.389 163.007 280.301 165.323 280.513 167.893Z" fill="#9BC04E"/>
<path d="M282.269 165.768C282.481 166.878 284.51 167.386 286.811 166.91C289.112 166.434 290.808 165.165 290.596 164.086C290.384 163.008 288.355 162.5 286.054 162.944C283.753 163.388 282.057 164.689 282.269 165.768Z" fill="#BAD950"/>
<path d="M284.419 164.34C284.419 164.752 285.267 164.975 286.114 164.784C286.962 164.594 287.659 164.118 287.568 163.706C287.477 163.293 286.72 163.103 285.842 163.293C284.964 163.483 284.177 163.928 284.419 164.34Z" fill="#E4F991"/>
<path d="M304.373 192.893C297.439 192.893 292.049 189.245 292.049 186.548V178.363C292.049 174.778 295.077 167.576 304.373 167.576C307.358 167.361 310.308 168.363 312.605 170.373C314.901 172.383 316.367 175.246 316.696 178.363V186.77C316.696 189.277 311.67 192.893 304.373 192.893Z" fill="#43761C"/>
<path d="M294.078 174.492C294.381 177.919 298.922 180.393 304.252 180.013C309.581 179.632 313.699 176.523 313.335 173.065C312.972 169.607 308.642 167.195 303.252 167.608C297.863 168.02 293.805 171.098 294.078 174.492Z" fill="#7BA525"/>
<path d="M296.53 171.7C296.803 173.16 299.558 173.826 302.586 173.223C305.614 172.62 307.885 170.907 307.643 169.448C307.401 167.988 304.615 167.322 301.587 167.957C298.559 168.591 296.167 170.273 296.53 171.7Z" fill="#9BBE23"/>
<path d="M299.074 169.797C299.074 170.368 300.194 170.622 301.345 170.368C302.495 170.114 303.373 169.511 303.252 168.94C303.131 168.369 302.132 168.147 300.981 168.401C299.831 168.655 298.983 169.258 299.074 169.797Z" fill="#C3DE59"/>
<path d="M318.543 197.874C313.85 197.874 310.217 195.368 310.217 193.655V188.039C310.304 186.99 310.589 185.97 311.057 185.037C311.524 184.105 312.164 183.28 312.939 182.609C313.714 181.939 314.609 181.437 315.571 181.133C316.533 180.829 317.544 180.728 318.543 180.837C320.539 180.701 322.509 181.372 324.047 182.712C325.585 184.051 326.574 185.958 326.81 188.039V193.718C326.81 195.4 323.388 197.874 318.543 197.874Z" fill="#61913D"/>
<path d="M311.67 185.438C311.852 187.754 314.94 189.435 318.543 189.15C322.147 188.864 324.932 186.802 324.751 184.486C324.569 182.17 321.39 180.488 317.726 180.837C314.062 181.186 311.397 183.122 311.67 185.438Z" fill="#9BC04E"/>
<path d="M313.154 183.534C313.335 184.518 315.152 184.962 317.211 184.549C319.27 184.137 320.814 182.995 320.633 182.011C320.451 181.028 318.634 180.584 316.575 180.996C314.516 181.409 312.972 182.551 313.154 183.534Z" fill="#BAD950"/>
<path d="M314.94 182.265C314.94 182.614 315.697 182.804 316.484 182.646C317.272 182.487 317.847 182.043 317.786 181.662C317.726 181.282 317.029 181.123 316.242 181.282C315.455 181.44 314.88 181.884 314.94 182.265Z" fill="#E4F991"/>
<path d="M272.731 134.771C274.306 134.771 275.577 135.438 275.577 136.263V181.535C275.564 181.759 275.479 181.972 275.335 182.138V182.138C275.013 182.438 274.63 182.655 274.215 182.773V182.773C273.732 182.918 273.233 182.992 272.731 182.995C271.156 182.995 269.915 182.297 269.915 181.504V136.421C269.915 135.438 271.156 134.771 272.731 134.771Z" fill="#D35400"/>
<path d="M273.064 109.771C279.907 109.771 291.232 145.273 291.232 152.95C291.232 158.249 286.75 168.813 273.064 168.813C259.953 168.813 254.897 158.122 254.897 152.95C254.745 145.273 268.007 109.771 273.064 109.771Z" fill="#43761C"/>
<path d="M272.307 153.585C270.733 138.61 272.973 109.771 272.973 109.771C279.816 109.771 291.443 145.273 291.141 152.95C291.171 161.136 273.397 163.261 272.307 153.585Z" fill="#7BA525"/>
<path d="M282.572 151.713C285.993 151.713 289.233 149.778 289.233 147.938C289.233 141.815 281.694 121.7 276.334 113.039C273.306 109.327 275.88 138.896 277.182 148.731C277.576 151.681 281.421 151.903 282.572 151.903V151.713Z" fill="#9BBE23"/>
<path d="M271.671 162.5C283.51 164.023 289.082 160.533 289.082 160.533C287.371 163.304 284.983 165.545 282.166 167.024C279.35 168.502 276.207 169.164 273.064 168.94C268.799 169.202 264.59 167.811 261.24 165.032C257.89 162.253 255.632 158.281 254.897 153.87C256.108 156.916 263.435 161.453 271.671 162.5Z" fill="#396910"/>
<path d="M277.818 125.444C279.483 130.489 281.573 134.327 282.511 133.978C283.45 133.629 282.875 129.251 281.239 124.207C279.604 119.162 277.455 115.324 276.516 115.641C275.577 115.958 276.153 120.368 277.818 125.444Z" fill="#C3DE59"/>
</g>
<g clip-path="url(#clip2)">
<path d="M601.793 425.944L760.585 338.074V334.324H443V338.074L601.793 425.944Z" fill="#176637"/>
<path d="M601.793 422.194L760.585 334.325L601.793 246.413L443 334.325L601.793 422.194Z" fill="#27AE60"/>
<path d="M702.827 307.784L602.744 253.913L503.612 307.951L603.695 362.781L702.827 307.784Z" fill="#EFF3F3"/>
<path d="M603.695 371.656L503.612 316.784V307.951L603.695 362.781V371.656Z" fill="#AAB7B7"/>
<path d="M603.695 371.656L702.827 316.617V307.784L603.695 362.781V371.656Z" fill="#BDC3C7"/>
<path d="M603.349 361.198V296.702L651.424 243.413L699.498 243.622V308.118L603.349 361.198Z" fill="#D35400"/>
<path d="M603.349 361.198V296.702L507.2 243.622V308.118L603.349 361.198Z" fill="#C1382A"/>
<path d="M653.499 243.372L603.349 298.993L503.05 243.622L553.199 188L653.499 243.372Z" fill="#34495E"/>
<path d="M653.499 243.372L703.648 243.622L603.349 188.208L553.199 188L653.499 243.372Z" fill="#566472"/>
<path d="M653.499 243.372L703.648 243.622L699.584 247.496L655.358 247.33L607.413 300.452L603.349 298.993L653.499 243.372Z" fill="#AAB7B7"/>
<path d="M539.279 279.744L521.597 269.953L520.645 270.787L538.327 306.451L539.279 305.618V279.744Z" fill="#EFF3F3"/>
<path d="M538.327 280.619L520.645 270.787V296.618L538.327 306.451V280.619Z" fill="#BDC3C7"/>
<path d="M522.721 295.452V274.245L536.252 281.744V302.951L522.721 295.452Z" fill="#566472"/>
<path d="M521.38 279.661V281.744L537.333 290.577V288.536L521.38 279.661Z" fill="#BDC3C7"/>
<path d="M521.38 287.119V289.161L537.333 298.035V295.993L521.38 287.119Z" fill="#BDC3C7"/>
<path d="M530.373 277.453L528.384 276.328V299.368L530.373 300.493V277.453Z" fill="#BDC3C7"/>
<path d="M574.34 299.202L556.658 289.369L555.664 290.202L573.346 325.867L574.34 325.033V299.202Z" fill="#EFF3F3"/>
<path d="M573.346 300.035L555.664 290.202V316.076L573.346 325.867V300.035Z" fill="#BDC3C7"/>
<path d="M557.739 314.909V293.702L571.271 301.202V322.409L557.739 314.909Z" fill="#566472"/>
<path d="M556.399 299.118V301.16L572.351 310.034V307.993L556.399 299.118Z" fill="#BDC3C7"/>
<path d="M556.399 306.535V308.576L572.351 317.451V315.409L556.399 306.535Z" fill="#BDC3C7"/>
<path d="M565.434 296.868L563.402 295.785V318.784L565.434 319.909V296.868Z" fill="#BDC3C7"/>
<path d="M674.51 273.828L692.235 264.037L693.186 264.87L675.504 322.742L674.51 321.909V273.828Z" fill="#EFF3F3"/>
<path d="M675.504 274.661L693.186 264.87V322.075L675.504 331.908V274.661Z" fill="#BDC3C7"/>
<path d="M691.111 323.2V268.328L677.579 275.828V330.7L691.111 323.2Z" fill="#566472"/>
<path d="M624.057 301.826L641.783 291.994L642.734 292.827L625.052 328.533L624.057 327.7V301.826Z" fill="#EFF3F3"/>
<path d="M625.052 302.66L642.734 292.827V318.7L625.052 328.533V302.66Z" fill="#BDC3C7"/>
<path d="M640.659 317.534V296.327L627.127 303.826V325.033L640.659 317.534Z" fill="#566472"/>
<path d="M641.999 301.743V303.785L626.046 312.659V310.618L641.999 301.743Z" fill="#BDC3C7"/>
<path d="M641.999 309.201V311.201L626.046 320.075V318.034L641.999 309.201Z" fill="#BDC3C7"/>
<path d="M633.007 299.535L634.995 298.41V321.45L633.007 322.534V299.535Z" fill="#BDC3C7"/>
<path d="M648.44 288.369L666.166 278.536L667.117 279.37L649.435 315.076L648.44 314.201V288.369Z" fill="#EFF3F3"/>
<path d="M649.435 289.202L667.117 279.37V305.243L649.435 315.076V289.202Z" fill="#BDC3C7"/>
<path d="M665.042 304.076V282.869L651.51 290.369V311.576L665.042 304.076Z" fill="#566472"/>
<path d="M666.382 288.286V290.327L650.429 299.202V297.16L666.382 288.286Z" fill="#BDC3C7"/>
<path d="M666.382 295.702V297.743L650.429 306.618V304.576L666.382 295.702Z" fill="#BDC3C7"/>
<path d="M657.39 286.036L659.378 284.953V307.951L657.39 309.076V286.036Z" fill="#BDC3C7"/>
<path d="M642.95 266.037L660.632 256.204L661.626 257.038L643.944 278.911L642.95 278.078V266.037Z" fill="#EFF3F3"/>
<path d="M643.944 266.87L661.626 257.037V269.12L643.944 278.911V266.87Z" fill="#BDC3C7"/>
<path d="M659.551 267.954V260.496L646.019 267.995V275.453L659.551 267.954Z" fill="#566472"/>
<path d="M651.856 263.704L653.845 262.579V271.828L651.856 272.953V263.704Z" fill="#BDC3C7"/>
<path d="M475.943 260.037C478.71 260.037 480.915 261.121 480.915 262.412V335.449C480.914 335.629 480.874 335.806 480.8 335.971C480.726 336.136 480.618 336.284 480.483 336.408V336.408C479.961 336.918 479.302 337.278 478.58 337.449V337.658C477.721 337.885 476.834 337.997 475.943 337.991C473.22 337.991 471.015 336.908 471.015 335.616V262.412C471.015 261.121 473.263 260.037 475.943 260.037Z" fill="#D35400"/>
<path d="M475.986 230.414C481.823 230.024 487.591 231.822 492.086 235.432C496.581 239.041 499.455 244.185 500.11 249.788V274.203V282.536C500.11 288.994 494.187 301.91 475.986 301.91C470.154 302.299 464.392 300.5 459.904 296.889C455.416 293.279 452.55 288.136 451.906 282.536V249.788C451.906 243.372 457.829 230.414 475.986 230.414Z" fill="#43761C"/>
<path d="M455.97 242.913C456.489 249.08 465.394 253.538 475.857 252.829C486.319 252.121 494.36 246.538 493.798 240.33C493.236 234.122 484.287 229.664 473.825 230.414C463.362 231.164 455.364 236.705 455.97 242.913Z" fill="#7BA525"/>
<path d="M460.293 237.997C460.812 240.622 466.086 241.83 472.052 240.705C478.018 239.58 482.601 236.372 481.909 233.831C481.217 231.289 476.116 229.997 470.15 231.122C464.184 232.247 459.947 235.206 460.293 237.997Z" fill="#9BBE23"/>
<path d="M465.654 234.414C465.654 235.414 467.859 235.872 469.977 235.455C472.095 235.039 473.911 233.872 473.695 232.872C473.479 231.872 471.49 231.456 469.372 231.872C467.253 232.289 465.438 233.414 465.654 234.414Z" fill="#C3DE59"/>
<path d="M475.986 292.702C491.723 292.702 498.381 287.577 500.024 283.869C499.375 290.577 493.106 302.035 475.986 302.035C470.362 302.383 464.802 300.717 460.374 297.356C455.946 293.996 452.961 289.178 451.992 283.828C453.722 287.494 460.941 292.702 475.986 292.702Z" fill="#396910"/>
<path d="M464.097 290.285C464.644 290.329 465.194 290.329 465.74 290.285V305.16C465.74 305.535 465.895 305.896 466.171 306.161C466.446 306.427 466.82 306.576 467.21 306.576H473.479C473.847 306.578 474.203 306.446 474.475 306.206C474.747 305.967 474.916 305.638 474.949 305.285C476.733 306.155 478.699 306.625 480.699 306.659C480.343 308.251 479.433 309.677 478.119 310.7C476.806 311.724 475.168 312.283 473.479 312.284H467.21C465.257 312.273 463.388 311.518 462.011 310.183C460.634 308.848 459.861 307.042 459.861 305.16V289.786C461.246 290.123 462.669 290.291 464.097 290.285V290.285Z" fill="#D35400"/>
<path d="M490.556 286.577C489.994 286.618 489.431 286.618 488.87 286.577V301.451C488.87 301.827 488.715 302.188 488.439 302.453C488.163 302.719 487.79 302.868 487.4 302.868H481.217C480.846 302.868 480.49 302.729 480.224 302.48C479.957 302.231 479.802 301.892 479.791 301.535C478.013 302.423 476.043 302.894 474.041 302.91C474.388 304.498 475.289 305.923 476.596 306.947C477.902 307.97 479.534 308.531 481.217 308.534H487.486C488.468 308.535 489.44 308.346 490.346 307.98C491.251 307.615 492.072 307.079 492.76 306.404C493.448 305.729 493.99 304.929 494.354 304.05C494.718 303.171 494.896 302.231 494.879 301.285V286.036C493.467 286.389 492.014 286.571 490.556 286.577V286.577Z" fill="#D35400"/>
<path d="M462.368 266.745C465.78 266.521 469.15 267.574 471.775 269.685C474.401 271.796 476.08 274.803 476.462 278.078V292.369V297.327C476.331 298.978 475.862 300.587 475.08 302.062C474.299 303.536 473.221 304.847 471.91 305.917C470.599 306.986 469.08 307.795 467.442 308.294C465.804 308.793 464.079 308.974 462.368 308.826C458.949 309.062 455.568 308.014 452.933 305.901C450.298 303.789 448.613 300.776 448.231 297.493V278.078C448.383 276.438 448.87 274.843 449.663 273.384C450.457 271.926 451.542 270.633 452.855 269.58C454.169 268.527 455.686 267.734 457.318 267.248C458.951 266.761 460.667 266.591 462.368 266.745V266.745Z" fill="#61913D"/>
<path d="M450.566 274.036C450.912 277.661 456.099 280.244 462.238 279.828C468.377 279.411 473.047 276.161 472.744 272.537C472.441 268.912 467.21 266.329 461.071 266.745C454.932 267.162 450.263 270.412 450.566 274.036Z" fill="#9BC04E"/>
<path d="M453.246 271.078C453.592 272.62 456.661 273.328 460.163 272.662C463.665 271.995 466.216 270.245 465.913 268.703C465.61 267.162 462.541 266.454 459.039 267.12C455.537 267.787 452.943 269.537 453.246 271.078Z" fill="#BAD950"/>
<path d="M456.272 269.078C456.272 269.662 457.569 269.912 458.91 269.662C460.25 269.412 461.201 268.745 461.071 268.204C460.941 267.662 459.817 267.329 458.477 267.579C457.137 267.829 456.186 268.495 456.272 269.078Z" fill="#E4F991"/>
<path d="M462.368 303.201C471.577 303.201 475.338 300.202 476.419 298.035C475.975 301.234 474.265 304.144 471.646 306.155C469.027 308.166 465.703 309.123 462.368 308.826C459.063 309.027 455.797 308.046 453.196 306.07C450.595 304.094 448.843 301.263 448.274 298.118C449.312 300.118 453.549 303.201 462.368 303.201Z" fill="#55842C"/>
<path d="M492.544 269.203C495.36 269.004 498.146 269.865 500.315 271.606C502.484 273.347 503.868 275.832 504.174 278.536V290.285V294.452C504.06 295.806 503.668 297.124 503.018 298.33C502.369 299.536 501.477 300.604 500.394 301.474C499.311 302.343 498.059 302.995 496.711 303.392C495.363 303.789 493.947 303.922 492.544 303.785C489.736 303.973 486.961 303.106 484.801 301.367C482.641 299.627 481.264 297.149 480.958 294.452V278.62C481.055 277.26 481.435 275.934 482.074 274.718C482.714 273.503 483.601 272.425 484.682 271.546C485.762 270.668 487.015 270.008 488.366 269.605C489.717 269.203 491.138 269.066 492.544 269.203V269.203Z" fill="#61913D"/>
<path d="M482.86 275.203C483.12 278.203 487.184 280.328 492.458 279.994C497.732 279.661 501.364 276.953 501.104 273.995C500.845 271.037 496.781 268.87 491.507 269.203C486.232 269.537 482.601 272.245 482.86 275.203Z" fill="#9BC04E"/>
<path d="M485.065 272.787C485.324 274.036 487.875 274.62 490.729 274.078C493.582 273.536 495.744 272.078 495.484 270.828C495.225 269.578 492.717 268.953 489.821 269.495C486.924 270.037 484.806 271.328 485.065 272.787Z" fill="#BAD950"/>
<path d="M487.573 271.328C487.573 271.787 488.653 272.037 489.734 271.828C490.815 271.62 491.636 271.078 491.507 270.578C491.377 270.078 490.469 269.912 489.388 270.078C488.308 270.245 487.486 270.662 487.573 271.328Z" fill="#E4F991"/>
<path d="M492.544 299.202C500.153 299.202 503.352 296.743 504.131 295.035C503.733 297.648 502.308 300.013 500.152 301.641C497.995 303.27 495.272 304.037 492.544 303.785C489.835 303.946 487.158 303.138 485.028 301.516C482.899 299.894 481.465 297.571 481.001 294.994C481.909 296.702 485.324 299.202 492.544 299.202Z" fill="#55842C"/>
<path d="M585.062 330.575C587.396 330.575 589.385 331.491 589.385 332.616V395.113C589.357 395.437 589.221 395.744 588.996 395.987V395.987C588.534 396.418 587.97 396.732 587.353 396.904V396.904C586.628 397.132 585.868 397.245 585.105 397.237C582.77 397.237 580.782 396.279 580.782 395.154V332.658C580.825 331.491 582.727 330.575 585.062 330.575Z" fill="#D35400"/>
<path d="M585.105 305.243C590.106 304.914 595.045 306.467 598.883 309.575C602.72 312.683 605.158 317.104 605.684 321.909V342.741V349.949C605.684 355.448 600.625 366.614 585.105 366.614C580.104 366.943 575.165 365.39 571.327 362.282C567.49 359.174 565.052 354.753 564.526 349.949V321.825C564.526 316.326 569.585 305.243 585.105 305.243Z" fill="#43761C"/>
<path d="M567.898 315.951C568.374 321.2 575.983 324.992 584.932 324.284C593.881 323.575 600.712 318.909 600.236 313.617C599.761 308.326 592.195 304.535 583.246 305.285C574.297 306.035 567.466 310.659 567.898 315.951Z" fill="#7BA525"/>
<path d="M571.833 311.618C572.308 313.826 576.761 314.867 581.906 313.909C587.05 312.951 590.552 310.368 590.293 308.118C590.034 305.868 585.364 304.868 580.263 305.826C575.162 306.784 571.4 309.368 571.833 311.618Z" fill="#9BBE23"/>
<path d="M576.242 308.826C576.242 309.659 578.145 310.034 580.047 309.701C581.949 309.368 583.419 308.326 583.246 307.493C583.073 306.66 581.387 306.243 579.442 306.618C577.496 306.993 576.069 307.826 576.242 308.826Z" fill="#C3DE59"/>
<path d="M585.105 358.49C598.55 358.49 604.257 354.115 605.64 350.949C605.078 356.657 599.718 366.489 585.105 366.489C580.285 366.783 575.523 365.351 571.733 362.467C567.943 359.583 565.391 355.451 564.57 350.865C566.083 354.032 572.265 358.49 585.105 358.49Z" fill="#396910"/>
<path d="M574.945 356.407C575.405 356.449 575.869 356.449 576.329 356.407V368.906C576.34 369.23 576.482 369.537 576.724 369.763C576.966 369.988 577.289 370.114 577.626 370.114H582.943C583.102 370.12 583.261 370.095 583.41 370.041C583.559 369.988 583.696 369.907 583.812 369.802C583.929 369.698 584.023 369.572 584.089 369.432C584.155 369.293 584.192 369.142 584.197 368.989C585.725 369.744 587.409 370.157 589.126 370.197C588.819 371.557 588.038 372.774 586.913 373.646C585.788 374.518 584.387 374.992 582.943 374.989H577.626C575.952 374.989 574.346 374.348 573.163 373.207C571.979 372.066 571.314 370.519 571.314 368.906V355.99C572.501 356.277 573.721 356.417 574.945 356.407Z" fill="#D35400"/>
<path d="M573.432 336.283C576.384 336.038 579.318 336.916 581.605 338.731C583.892 340.546 585.35 343.152 585.667 345.99V358.198V362.365C585.548 363.768 585.14 365.134 584.466 366.383C583.792 367.633 582.867 368.74 581.743 369.64C580.62 370.54 579.322 371.215 577.924 371.626C576.527 372.036 575.059 372.174 573.605 372.031C570.694 372.23 567.815 371.335 565.574 369.533C563.333 367.73 561.904 365.161 561.587 362.365V345.99C561.701 344.603 562.099 343.251 562.756 342.011C563.414 340.772 564.319 339.67 565.419 338.768C566.52 337.866 567.794 337.182 569.169 336.756C570.544 336.33 571.993 336.169 573.432 336.283V336.283Z" fill="#61913D"/>
<path d="M563.402 342.532C563.662 345.615 568.115 347.865 573.346 347.49C578.577 347.115 582.598 344.366 582.295 341.282C581.992 338.199 577.583 335.949 572.351 336.324C567.12 336.699 563.1 339.449 563.402 342.532Z" fill="#9BC04E"/>
<path d="M565.694 340.033C565.953 341.324 568.59 341.907 571.573 341.366C574.556 340.824 576.761 339.283 576.502 337.991C576.242 336.699 573.605 336.074 570.622 336.616C567.639 337.158 565.434 338.699 565.694 340.033Z" fill="#BAD950"/>
<path d="M568.374 338.324C568.374 338.783 569.498 339.033 570.622 338.824C571.746 338.616 572.568 338.033 572.481 337.533C572.395 337.033 571.4 336.824 570.276 337.033C569.152 337.241 568.374 337.991 568.374 338.324Z" fill="#E4F991"/>
<path d="M573.432 367.448C581.301 367.448 584.629 364.864 585.451 363.031C585.042 365.743 583.566 368.2 581.328 369.891C579.09 371.582 576.263 372.378 573.432 372.114C570.616 372.278 567.836 371.44 565.62 369.757C563.404 368.075 561.907 365.666 561.414 362.989C562.322 364.823 565.91 367.448 573.432 367.448Z" fill="#55842C"/>
<path d="M740.309 268.578C742.644 268.578 744.633 269.495 744.633 270.662V333.158C744.621 333.466 744.499 333.76 744.287 333.991C743.837 334.437 743.269 334.754 742.644 334.908V334.908C741.911 335.1 741.155 335.198 740.396 335.199C738.061 335.199 736.073 334.283 736.073 333.158V270.662C736.073 269.495 737.975 268.578 740.309 268.578Z" fill="#D35400"/>
<path d="M740.353 243.288C745.356 242.949 750.301 244.498 754.141 247.608C757.981 250.718 760.416 255.145 760.931 259.954V280.786V287.994C760.931 293.494 755.873 304.66 740.353 304.66C735.335 305.021 730.368 303.483 726.509 300.37C722.65 297.258 720.203 292.818 719.688 287.994V259.829C719.688 254.329 724.832 243.288 740.353 243.288Z" fill="#43761C"/>
<path d="M723.146 253.954C723.622 259.246 731.231 263.037 740.18 262.287C749.129 261.537 755.96 256.913 755.484 251.621C755.008 246.33 747.443 242.538 738.494 243.288C729.545 244.038 722.714 248.663 723.146 253.954Z" fill="#7BA525"/>
<path d="M727.08 249.621C727.556 251.871 732.052 252.913 737.11 251.954C742.168 250.996 745.757 248.413 745.757 246.163C745.757 243.913 740.828 242.913 735.727 243.872C730.625 244.83 726.648 247.413 727.08 249.621Z" fill="#9BBE23"/>
<path d="M731.49 246.705C731.49 247.538 733.349 247.955 735.294 247.58C737.24 247.205 738.667 246.247 738.494 245.413C738.321 244.58 736.635 244.163 734.689 244.538C732.744 244.913 731.317 245.872 731.49 246.705Z" fill="#C3DE59"/>
<path d="M740.353 296.535C753.798 296.535 759.505 292.119 760.888 288.952C760.326 294.702 754.965 304.66 740.353 304.66C735.486 304.98 730.671 303.539 726.849 300.619C723.027 297.698 720.473 293.508 719.688 288.869C721.33 292.16 727.513 296.535 740.353 296.535Z" fill="#396910"/>
<path d="M505.903 340.449C498.727 340.449 492.934 336.949 492.934 334.491V326.575C493.062 325.072 493.503 323.61 494.23 322.274C494.957 320.939 495.955 319.758 497.165 318.802C498.375 317.846 499.772 317.134 501.273 316.709C502.774 316.283 504.349 316.153 505.903 316.326C508.989 316.124 512.037 317.077 514.412 318.986C516.788 320.895 518.308 323.613 518.657 326.575V334.616C518.657 336.991 513.339 340.449 505.903 340.449Z" fill="#61913D"/>
<path d="M495.268 322.95C495.571 326.2 500.24 328.575 505.774 328.2C511.307 327.825 515.544 324.867 515.285 321.617C515.025 318.367 510.27 315.992 504.779 316.367C499.289 316.742 494.879 319.659 495.268 322.95Z" fill="#9BC04E"/>
<path d="M497.689 320.284C497.992 321.659 500.758 322.284 503.914 321.7C507.07 321.117 509.405 319.492 509.102 318.117C508.8 316.742 506.076 316.117 502.92 316.701C499.764 317.284 497.43 318.909 497.689 320.284Z" fill="#BAD950"/>
<path d="M500.413 318.451C500.413 318.992 501.58 319.242 502.79 318.992C504.001 318.742 504.866 318.159 504.779 317.659C504.693 317.159 503.612 316.867 502.401 317.117C501.191 317.367 500.326 317.951 500.413 318.451Z" fill="#E4F991"/>
<path d="M528.038 354.657C518.527 354.657 511.134 350.032 511.134 346.782V336.158C511.297 334.187 511.865 332.266 512.807 330.509C513.749 328.753 515.044 327.194 516.618 325.926C518.192 324.657 520.013 323.704 521.974 323.121C523.935 322.539 525.996 322.339 528.038 322.534C532.138 322.252 536.192 323.515 539.345 326.056C542.498 328.598 544.504 332.219 544.942 336.158V346.782C544.942 349.949 538.111 354.657 528.038 354.657Z" fill="#43761C"/>
<path d="M513.944 331.325C514.29 335.491 520.559 338.783 527.909 338.283C535.258 337.783 540.878 333.866 540.489 329.533C540.1 325.2 533.875 322.034 526.525 322.534C519.176 323.033 513.555 326.95 513.944 331.325Z" fill="#7BA525"/>
<path d="M517.144 327.742C517.533 329.575 521.207 330.45 525.401 329.658C529.595 328.867 532.664 326.742 532.318 324.908C531.972 323.075 528.254 322.242 524.061 322.992C519.867 323.742 516.755 325.908 517.144 327.742Z" fill="#9BBE23"/>
<path d="M520.818 325.492C520.818 326.158 522.375 326.492 523.931 326.2C525.488 325.908 526.698 325.117 526.568 324.408C526.439 323.7 525.012 323.367 523.456 323.7C521.899 324.033 520.818 324.658 520.818 325.492Z" fill="#C3DE59"/>
<path d="M547.493 360.781C541.051 360.781 536.079 357.656 536.079 355.448V348.365C536.188 347.034 536.571 345.736 537.206 344.549C537.841 343.361 538.716 342.308 539.779 341.45C540.842 340.593 542.071 339.948 543.396 339.555C544.721 339.161 546.113 339.026 547.493 339.158C550.26 338.98 552.991 339.839 555.117 341.554C557.243 343.269 558.6 345.709 558.906 348.365V355.573C558.906 357.698 554.151 360.781 547.493 360.781Z" fill="#61913D"/>
<path d="M538.111 345.074C538.371 348.032 542.435 350.115 547.579 349.782C552.724 349.449 556.226 346.824 556.226 343.866C556.226 340.907 551.902 338.824 546.801 339.158C541.7 339.491 537.679 342.157 538.111 345.074Z" fill="#9BC04E"/>
<path d="M540.143 342.699C540.359 343.949 542.867 344.491 545.72 343.991C548.574 343.491 550.606 341.991 550.389 340.782C550.173 339.574 547.622 338.949 544.812 339.491C542.002 340.033 539.884 341.449 540.143 342.699Z" fill="#BAD950"/>
<path d="M542.435 341.074C542.435 341.532 543.472 341.741 544.553 341.574C545.634 341.407 546.412 340.824 546.326 340.324C546.239 339.824 545.288 339.658 544.207 339.866C543.126 340.074 542.435 340.616 542.435 341.074Z" fill="#E4F991"/>
<path d="M639.837 375.489C630.283 375.489 622.89 370.822 622.89 367.573V357.073C623.063 355.104 623.641 353.187 624.59 351.435C625.538 349.683 626.839 348.129 628.416 346.866C629.992 345.602 631.814 344.653 633.775 344.073C635.736 343.494 637.796 343.296 639.837 343.491C643.928 343.219 647.97 344.48 651.119 347.011C654.269 349.541 656.283 353.146 656.741 357.073V367.698C656.741 370.864 649.694 375.489 639.837 375.489Z" fill="#43761C"/>
<path d="M625.7 352.24C626.089 356.407 632.315 359.698 639.664 359.198C647.014 358.698 652.634 354.782 652.245 350.449C651.856 346.116 645.63 342.991 638.281 343.491C630.931 343.991 625.311 347.907 625.7 352.24Z" fill="#7BA525"/>
<path d="M628.899 348.699C629.288 350.532 632.963 351.365 637.157 350.574C641.35 349.782 644.463 347.657 644.074 345.824C643.685 343.991 640.01 343.157 635.817 343.949C631.623 344.741 628.554 346.865 628.899 348.699Z" fill="#9BBE23"/>
<path d="M632.531 346.324C632.531 347.032 634.087 347.365 635.687 347.074C637.286 346.782 638.454 345.949 638.281 345.241C638.108 344.532 636.768 344.241 635.168 344.532C633.569 344.824 632.401 345.615 632.531 346.324Z" fill="#C3DE59"/>
<path d="M617.011 385.196C610.569 385.196 605.554 382.072 605.554 379.863V372.781C605.668 371.447 606.056 370.148 606.696 368.961C607.335 367.773 608.214 366.72 609.28 365.863C610.347 365.006 611.579 364.362 612.906 363.969C614.234 363.576 615.629 363.441 617.011 363.573C619.777 363.395 622.508 364.254 624.635 365.969C626.761 367.685 628.118 370.125 628.424 372.781V379.947C628.424 382.113 623.668 385.196 617.011 385.196Z" fill="#61913D"/>
<path d="M607.283 369.489C607.543 372.447 611.606 374.572 616.708 374.197C621.809 373.822 625.354 371.239 625.354 368.281C625.354 365.323 621.031 363.239 615.93 363.573C610.828 363.906 607.283 366.573 607.283 369.489Z" fill="#9BC04E"/>
<path d="M609.618 367.156C609.877 368.406 612.385 368.947 615.195 368.447C618.005 367.947 620.123 366.448 619.864 365.198C619.604 363.948 617.14 363.406 614.287 363.948C611.433 364.489 609.402 365.864 609.618 367.156Z" fill="#BAD950"/>
<path d="M612.082 365.489C612.082 365.948 613.12 366.156 614.2 365.989C615.281 365.823 616.059 365.239 615.973 364.739C615.886 364.239 614.935 364.073 613.855 364.281C612.774 364.489 611.996 365.031 612.082 365.489Z" fill="#E4F991"/>
</g>
<g clip-path="url(#clip3)">
<path d="M376.987 587.805L530.926 495.071V491.422L210.391 484.284V487.9L376.987 587.805Z" fill="#176637"/>
<path d="M376.987 584.157L530.926 491.422L364.33 391.517L210.391 484.284L376.987 584.157Z" fill="#27AE60"/>
<path d="M494.682 427.717C496.226 427.717 497.498 428.383 497.498 429.176V474.385C497.49 474.611 497.404 474.825 497.256 474.988C496.946 475.288 496.572 475.506 496.166 475.623V475.623C495.683 475.767 495.184 475.842 494.682 475.845C493.107 475.845 491.836 475.178 491.836 474.354V429.176C491.987 428.383 493.107 427.717 494.682 427.717Z" fill="#D35400"/>
<path d="M495.015 402.717C501.858 402.717 513.334 438.186 513.334 445.864C513.334 451.162 508.822 461.727 495.015 461.727C490.625 462.018 486.295 460.537 482.916 457.586C479.537 454.636 477.365 450.441 476.848 445.864C476.848 438.186 489.928 402.717 495.015 402.717Z" fill="#43761C"/>
<path d="M494.319 446.498C492.774 431.524 494.985 402.717 494.985 402.717C501.858 402.717 513.455 438.186 513.304 445.864C513.183 454.081 495.348 456.175 494.319 446.498Z" fill="#7BA525"/>
<path d="M504.523 444.626C507.944 444.626 511.184 442.691 511.154 440.883C511.154 434.728 503.614 414.614 498.255 405.984C495.227 402.272 497.801 431.873 499.133 441.708C499.527 444.658 503.342 444.88 504.523 444.722V444.626Z" fill="#9BBE23"/>
<path d="M493.622 455.35C505.431 456.873 511.033 453.351 511.033 453.351C509.328 456.135 506.944 458.392 504.128 459.886C501.312 461.381 498.166 462.061 495.015 461.854C490.745 462.114 486.533 460.719 483.182 457.933C479.832 455.148 477.577 451.168 476.848 446.752C478.059 449.829 485.386 454.366 493.622 455.35Z" fill="#396910"/>
<path d="M499.769 418.357C501.404 423.402 503.524 427.241 504.462 426.892C505.401 426.543 504.826 422.196 503.16 417.12C501.495 412.044 499.405 408.237 498.467 408.554C497.528 408.871 498.043 413.281 499.769 418.357Z" fill="#C3DE59"/>
<path d="M327.632 439.963L329.267 438.599L351.643 452.019V486.409L349.978 487.393L327.632 439.963Z" fill="white"/>
<path d="M327.632 473.973V439.55L349.978 452.97V487.393L327.632 473.973Z" fill="#DBDBDB"/>
<path d="M347.404 453.89L330.205 443.548V473.053L347.404 483.395V453.89Z" fill="#566472"/>
<path d="M338.926 447.831V479.112L337.624 478.351V447.038L338.926 447.831Z" fill="#DBDBDB"/>
<path d="M403.996 421.974L310.13 478.288L403.996 534.633L497.831 478.288L403.996 421.974Z" fill="#EFF3F3"/>
<path d="M497.831 487.837L403.996 544.182V534.633L497.831 478.288V487.837Z" fill="#DBDBDB"/>
<path d="M403.996 544.182L310.13 487.837V478.288L403.996 534.633V544.182Z" fill="#AAB7B7"/>
<path d="M270.889 449.607L224.864 476.828L318.699 533.173L364.754 505.953L270.889 449.607Z" fill="#EFF3F3"/>
<path d="M360 508.776L318.699 533.173V542.723L360 518.326V508.776Z" fill="#DBDBDB"/>
<path d="M318.699 542.723L224.864 486.378V476.828L318.699 533.173V542.723Z" fill="#AAB7B7"/>
<path d="M403.996 529.62V467.279L318.487 415.978V478.288L403.996 529.62Z" fill="#AAB7B7"/>
<path d="M319.214 527.843V465.534L273.826 373.497L231.162 413.25V475.559L319.214 527.843Z" fill="#AAB7B7"/>
<path d="M360.091 440.978L319.214 465.534V527.843L360.091 503.319V440.978Z" fill="#DBDBDB"/>
<path d="M446.72 376.828L489.474 415.978V431.904L489.413 478.954L468.43 490.914L403.996 529.62V467.279L446.72 376.828Z" fill="#DBDBDB"/>
<path d="M445.478 370.261L400.09 466.327L314.581 415.026L360 318.929L445.478 370.261Z" fill="#566472"/>
<path d="M493.38 414.106V416.612L489.474 418.96V415.978L446.72 376.828L403.996 467.279V470.261L400.09 472.609V466.327L445.478 370.261L493.38 414.106Z" fill="#34495E"/>
<path d="M400.09 472.609V466.327L314.581 415.026V421.308L400.09 472.609Z" fill="#34495E"/>
<path d="M365.299 463.027L366.964 461.663L389.31 475.083V509.506L387.645 510.458L365.299 463.027Z" fill="white"/>
<path d="M365.299 497.038V462.647L387.645 476.067V510.458L365.299 497.038Z" fill="#DBDBDB"/>
<path d="M385.071 476.955L367.873 466.644V496.149L385.071 506.46V476.955Z" fill="#566472"/>
<path d="M376.593 470.895V502.209L375.321 501.416V470.134L376.593 470.895Z" fill="#DBDBDB"/>
<path d="M444.54 462.647L442.874 461.663L420.498 475.083V509.506L422.163 510.458L444.54 462.647Z" fill="white"/>
<path d="M444.54 497.038V462.647L422.163 476.067V510.458L444.54 497.038Z" fill="#EFEFEF"/>
<path d="M424.767 476.955L441.936 466.644V496.149L424.767 506.46V476.955Z" fill="#566472"/>
<path d="M433.215 470.895V502.209L434.517 501.416V470.134L433.215 470.895Z" fill="#EFEFEF"/>
<path d="M460.769 399.576L459.104 398.592L446.054 406.27V440.121L447.719 441.073L460.769 399.576Z" fill="white"/>
<path d="M460.769 433.395V399.576L447.719 407.253V441.073L460.769 433.395Z" fill="#EFEFEF"/>
<path d="M450.293 408.142L458.165 403.573V432.507L450.293 437.076V408.142Z" fill="#566472"/>
<path d="M473.547 446.942L469.641 444.658L447.961 457.19V503.224L452.049 505.762L473.547 446.942Z" fill="white"/>
<path d="M473.638 492.818V446.942L451.867 459.474L452.049 505.762L473.638 492.818Z" fill="#EFEFEF"/>
<path d="M471.155 452.177L454.38 461.283V504.366L471.216 494.373L471.155 452.177Z" fill="#566472"/>
<path d="M348.04 468.516L346.344 467.152L333.324 474.83V508.649L334.959 509.633L348.04 468.516Z" fill="white"/>
<path d="M348.04 501.955V468.135L334.959 475.781V509.633L348.04 501.955Z" fill="#EFEFEF"/>
<path d="M337.563 476.701L345.436 472.133V501.035L337.563 505.635V476.701Z" fill="#566472"/>
<path d="M492.926 511.06L473.699 499.766L464.009 520.039L470.973 524.163L492.926 511.06Z" fill="#EFF3F3"/>
<path d="M470.973 527.558L451.746 515.851V512.456L470.973 524.163V527.558Z" fill="#AAB7B7"/>
<path d="M470.973 527.558L492.926 514.487V511.06L470.973 524.163V527.558Z" fill="#BDC3C7"/>
<path d="M486.658 503.827L473.699 496.308L457.772 512.774L464.736 516.898L486.658 503.827Z" fill="#EFF3F3"/>
<path d="M464.736 520.293L451.746 512.425V509.03L464.736 516.898V520.293Z" fill="#AAB7B7"/>
<path d="M464.736 520.293L486.658 507.222V503.827L464.736 516.898V520.293Z" fill="#BDC3C7"/>
<path d="M480.663 496.689L473.699 492.913L451.746 505.635L458.71 509.76L480.663 496.689Z" fill="#EFF3F3"/>
<path d="M458.71 513.154L451.746 509.03V505.635L458.71 509.76V513.154Z" fill="#AAB7B7"/>
<path d="M458.71 513.154L480.663 500.083V496.689L458.71 509.76V513.154Z" fill="#BDC3C7"/>
<path d="M360.303 530.445C355.065 530.445 351.038 527.653 351.038 525.718V519.373C351.125 518.197 351.435 517.052 351.951 516.003C352.466 514.955 353.176 514.026 354.039 513.269C354.902 512.512 355.901 511.944 356.977 511.598C358.052 511.251 359.183 511.133 360.303 511.251C362.549 511.089 364.768 511.845 366.495 513.358C368.222 514.872 369.323 517.027 369.568 519.373V525.718C369.568 527.685 365.723 530.445 360.303 530.445Z" fill="#61913D"/>
<path d="M352.703 516.581C352.915 519.151 356.336 521.022 360.364 520.737C364.391 520.451 367.479 518.104 367.267 515.502C367.055 512.901 363.634 511.06 359.607 511.346C355.579 511.631 352.34 513.979 352.703 516.581Z" fill="#9BC04E"/>
<path d="M354.308 514.455C354.52 515.566 356.548 516.041 358.85 515.597C361.151 515.153 362.846 513.852 362.634 512.742C362.423 511.632 360.424 511.156 358.123 511.632C355.822 512.107 354.126 513.376 354.308 514.455Z" fill="#BAD950"/>
<path d="M356.306 513.027C356.306 513.44 357.154 513.63 358.032 513.44C358.91 513.249 359.546 512.805 359.455 512.393C359.364 511.98 358.607 511.758 357.76 511.949C356.912 512.139 356.246 512.615 356.306 513.027Z" fill="#E4F991"/>
<path d="M376.411 541.581C369.478 541.581 364.118 537.901 364.118 535.236V527.019C364.118 523.434 367.146 516.263 376.411 516.263C379.394 516.039 382.344 517.034 384.641 519.04C386.939 521.045 388.406 523.904 388.735 527.019V535.426C388.735 537.837 383.618 541.581 376.411 541.581Z" fill="#43761C"/>
<path d="M366.147 523.211C366.419 526.638 370.961 529.081 376.29 528.7C381.62 528.319 385.738 525.21 385.374 521.784C385.011 518.357 380.56 515.883 375.231 516.264C369.902 516.644 365.874 519.753 366.147 523.211Z" fill="#7BA525"/>
<path d="M368.478 520.388C368.751 521.847 371.506 522.513 374.534 521.879C377.562 521.244 379.833 519.563 379.561 518.135C379.288 516.708 376.533 516.01 373.505 516.612C370.477 517.215 368.206 518.802 368.478 520.388Z" fill="#9BBE23"/>
<path d="M371.113 518.484C371.113 519.024 372.233 519.277 373.384 519.055C374.534 518.833 375.412 518.167 375.321 517.628C375.231 517.088 374.201 516.835 373.02 517.057C371.839 517.279 371.022 517.945 371.113 518.484Z" fill="#C3DE59"/>
<path d="M338.472 540.661C333.778 540.661 330.145 538.186 330.145 536.441V530.826C330.224 529.771 330.504 528.744 330.968 527.804C331.433 526.864 332.071 526.032 332.847 525.355C333.623 524.678 334.521 524.17 335.486 523.862C336.452 523.554 337.467 523.451 338.472 523.56C340.487 523.408 342.48 524.08 344.033 525.434C345.585 526.789 346.577 528.721 346.798 530.826V536.505C346.798 538.218 343.347 540.661 338.472 540.661Z" fill="#61913D"/>
<path d="M331.507 528.319C331.689 530.667 334.778 532.317 338.381 532.063C341.984 531.809 344.77 529.684 344.437 527.368C344.104 525.052 341.167 523.37 337.563 523.656C333.96 523.941 331.326 525.908 331.507 528.319Z" fill="#9BC04E"/>
<path d="M333.112 526.352C333.294 527.304 335.111 527.78 337.17 527.336C339.229 526.892 340.743 525.781 340.561 524.798C340.379 523.814 338.563 523.37 336.504 523.782C334.445 524.195 332.931 525.369 333.112 526.352Z" fill="#BAD950"/>
<path d="M334.899 525.147C334.899 525.527 335.656 525.686 336.443 525.527C337.23 525.369 337.775 524.956 337.715 524.576C337.654 524.195 336.958 524.036 336.171 524.195C335.383 524.353 334.808 524.671 334.899 525.147Z" fill="#E4F991"/>
<path d="M397.637 518.579C399.212 518.579 400.483 519.246 400.483 520.07V565.312C400.475 565.546 400.39 565.77 400.241 565.946V565.946C399.937 566.261 399.562 566.49 399.151 566.612V566.612C398.661 566.77 398.15 566.845 397.637 566.834C396.093 566.834 394.821 566.168 394.821 565.343V520.07C394.821 519.246 396.093 518.579 397.637 518.579Z" fill="#D35400"/>
<path d="M398.122 473.402C404.965 473.402 416.289 529.081 416.289 536.854C416.289 542.152 411.808 552.716 398.122 552.716C393.708 553.043 389.344 551.577 385.934 548.624C382.524 545.671 380.328 541.456 379.803 536.854C379.651 529.081 392.914 473.402 398.122 473.402Z" fill="#43761C"/>
<path d="M397.304 537.393C395.73 522.387 397.97 473.592 397.97 473.592C404.844 473.592 416.441 529.081 416.138 536.758C416.077 544.944 398.303 547.069 397.304 537.393Z" fill="#7BA525"/>
<path d="M407.478 535.489C410.93 535.489 414.139 533.554 414.139 531.746C414.139 525.623 406.085 484.728 400.726 476.003C397.698 472.291 400.726 522.64 402.088 532.475C402.482 535.426 406.327 535.648 407.478 535.648V535.489Z" fill="#9BBE23"/>
<path d="M396.577 546.308C408.417 547.831 414.018 544.309 414.018 544.309C412.317 547.062 409.949 549.293 407.157 550.776C404.364 552.258 401.247 552.939 398.122 552.748C393.853 553.002 389.645 551.603 386.295 548.819C382.946 546.035 380.69 542.059 379.954 537.647C381.044 540.724 388.341 545.261 396.577 546.308Z" fill="#396910"/>
<path d="M401.392 493.675C402.966 501.606 405.298 507.824 406.63 507.539C407.962 507.253 407.75 500.591 406.176 492.659C404.601 484.728 402.27 478.51 400.938 478.795C399.605 479.081 399.817 485.775 401.392 493.675Z" fill="#C3DE59"/>
<path d="M360 318.929L274.976 369.975L320.365 466.041L360 442.247V318.929Z" fill="#3D576D"/>
<path d="M227.075 413.821V416.327L230.981 418.675V415.692L273.735 376.543L316.459 466.993V469.975L320.365 472.323V466.041L274.976 369.975L227.075 413.821Z" fill="#566472"/>
<path d="M360 442.247L320.365 466.041V472.323L360 448.56V442.247Z" fill="#34495E"/>
<path d="M279.125 460.394L280.79 459.03L303.166 472.45V506.841L301.501 507.824L279.125 460.394Z" fill="white"/>
<path d="M279.125 494.404V459.982L301.501 473.434V507.824L279.125 494.404Z" fill="#DBDBDB"/>
<path d="M298.897 474.322L281.729 464.011V493.484L298.897 503.827V474.322Z" fill="#566472"/>
<path d="M290.449 468.262V499.576L289.147 498.782V467.501L290.449 468.262Z" fill="#DBDBDB"/>
<path d="M259.171 395.007L260.836 393.643L283.182 407.063V441.486L281.517 442.437L259.171 395.007Z" fill="white"/>
<path d="M259.171 429.017V394.626L281.517 408.047V442.437L259.171 429.017Z" fill="#DBDBDB"/>
<path d="M278.943 408.935L261.744 398.624V428.129L278.943 438.44V408.935Z" fill="#566472"/>
<path d="M270.465 402.875V434.189L269.193 433.395V402.114L270.465 402.875Z" fill="#DBDBDB"/>
<path d="M241.366 438.154L243.032 436.79L265.378 450.21V484.633L263.712 485.585L241.366 438.154Z" fill="white"/>
<path d="M241.366 472.164V437.742L263.712 451.194V485.585L241.366 472.164Z" fill="#DBDBDB"/>
<path d="M261.139 452.082L243.94 441.771V471.276L261.139 481.587V452.082Z" fill="#566472"/>
<path d="M252.661 446.022V477.304L251.389 476.543V445.261L252.661 446.022Z" fill="#DBDBDB"/>
</g>
</g>
<defs>
<clipPath id="clip0">
<rect width="264.155" height="272.874" fill="white" transform="translate(0 140)"/>
</clipPath>
<clipPath id="clip1">
<rect width="282.384" height="275.888" fill="white" transform="translate(239)"/>
</clipPath>
<clipPath id="clip2">
<rect width="317.931" height="237.944" fill="white" transform="translate(443 188)"/>
</clipPath>
<clipPath id="clip3">
<rect width="320.535" height="268.877" fill="white" transform="translate(210.391 318.929)"/>
</clipPath>
</defs>
</svg>
