<svg width="468" height="369" viewBox="0 0 468 369" fill="none" xmlns="http://www.w3.org/2000/svg">
<g opacity="0.5" clip-path="url(#clip0)">
<path fill-rule="evenodd" clip-rule="evenodd" d="M119.59 123.55L114 124.78L112.85 63.19L306 14.05L335.22 73L129.69 118.5L119.59 123.55Z" fill="#0094B0"/>
<path fill-rule="evenodd" clip-rule="evenodd" d="M151.38 113.7L149.17 114.19L130.41 58.72L132.6 58.17L151.38 113.7ZM155.05 52.46L174.14 105.71C174.241 105.992 174.225 106.303 174.097 106.574C173.968 106.845 173.737 107.054 173.455 107.155C173.315 107.205 173.167 107.227 173.019 107.219C172.87 107.212 172.725 107.175 172.591 107.112C172.32 106.983 172.111 106.752 172.01 106.47L152.85 53L155.05 52.46ZM182.76 45.41L203.23 101.73C203.287 101.88 203.308 102.041 203.29 102.2L201.18 102.67C201.18 102.67 201.13 102.56 201.1 102.5L180.56 46L182.76 45.41ZM231.54 96L229.32 96.49L210.32 38.49L212.52 37.93L231.54 96ZM217.82 36.48C220.71 45.48 232.68 82.6 236.65 94.82L234.44 95.31C230.37 82.81 218.44 45.73 215.63 37.04L217.82 36.48ZM253.09 27.48L271.51 82.26C271.591 82.5398 271.561 82.84 271.425 83.0979C271.29 83.3559 271.061 83.5517 270.785 83.6446C270.509 83.7374 270.208 83.7202 269.944 83.5963C269.68 83.4725 269.475 83.2517 269.37 82.98L250.89 28.07L253.09 27.48ZM277.45 21.28L298 77.3C298.053 77.4391 298.077 77.5873 298.072 77.7358C298.066 77.8844 298.031 78.0305 297.969 78.1654C297.907 78.3004 297.818 78.4216 297.708 78.522C297.599 78.6223 297.47 78.6998 297.33 78.75C297.049 78.8533 296.738 78.8407 296.466 78.7151C296.194 78.5895 295.984 78.361 295.88 78.08L275.25 21.87L277.45 21.28ZM314.36 77.58L312.13 78.07L289.78 18.18L291.98 17.62L314.36 77.58Z" fill="#D2D2D5"/>
<path fill-rule="evenodd" clip-rule="evenodd" d="M131.12 118.09L162.05 111.27L181.52 83.81L210.46 100.6L261.46 89.37L280.72 62.22L309.33 78.82L330.55 74.14L359.79 207L146 254.12L116.7 121.41V121.31L115.33 67.95L131.12 118.09Z" fill="#D2D2D5"/>
<path fill-rule="evenodd" clip-rule="evenodd" d="M181.85 84.7L158 120L152.94 116.58L178.48 78.8C178.928 78.1373 179.618 77.6769 180.401 77.518C181.185 77.359 182 77.5141 182.67 77.95L219.78 102.07L216.46 107.19L181.85 84.7Z" fill="black"/>
<path fill-rule="evenodd" clip-rule="evenodd" d="M280.75 63.26L257.46 98.9L252.35 95.56L277.28 57.41C277.72 56.7423 278.403 56.2733 279.185 56.1032C279.966 55.9331 280.783 56.0756 281.46 56.5L319 80L315.76 85.16L280.75 63.26Z" fill="black"/>
<path fill-rule="evenodd" clip-rule="evenodd" d="M168.88 249.06L166.75 249.53L137.75 116.62L139.87 116.16L168.88 249.06Z" fill="white"/>
<path fill-rule="evenodd" clip-rule="evenodd" d="M208.49 116.37C207.378 111.324 204.307 106.925 199.953 104.142C195.598 101.36 190.317 100.42 185.27 101.53C180.224 102.642 175.825 105.713 173.043 110.067C170.26 114.422 169.32 119.703 170.43 124.75L176.34 151.58L214.4 143.2L208.49 116.37Z" fill="white"/>
<path fill-rule="evenodd" clip-rule="evenodd" d="M183.65 102C184.18 101.84 184.72 101.69 185.27 101.57L185.76 101.47L188.76 115.14L206.58 111.25C206.932 111.899 207.249 112.567 207.53 113.25L189.22 117.25L192.27 131.25L210.88 127.19L211.35 129.32L192.74 133.38L195.74 147.38L193.61 147.85L190.61 133.85L173.28 137.63L172.81 135.51L190.14 131.73L187.09 117.73L170 121.42C169.96 120.674 169.96 119.926 170 119.18L186.59 115.56L183.65 102Z" fill="#D2D2D5"/>
<path fill-rule="evenodd" clip-rule="evenodd" d="M202.44 119.29L198.15 126.5C198.094 126.6 198.078 126.718 198.106 126.83C198.134 126.941 198.203 127.038 198.3 127.1C198.401 127.158 198.521 127.174 198.633 127.144C198.746 127.114 198.842 127.041 198.9 126.94L203.19 119.74C203.248 119.639 203.264 119.519 203.234 119.407C203.204 119.295 203.131 119.199 203.03 119.14C202.981 119.111 202.928 119.092 202.872 119.084C202.816 119.076 202.759 119.079 202.704 119.093C202.649 119.107 202.598 119.131 202.552 119.165C202.507 119.199 202.469 119.241 202.44 119.29V119.29ZM200.16 119.36L197 124.45C196.969 124.498 196.948 124.552 196.938 124.609C196.929 124.666 196.93 124.724 196.943 124.78C196.956 124.835 196.981 124.888 197.014 124.935C197.048 124.981 197.091 125.02 197.14 125.05C197.238 125.11 197.356 125.129 197.469 125.103C197.581 125.076 197.678 125.007 197.74 124.91L200.89 119.82C200.95 119.722 200.969 119.604 200.943 119.491C200.916 119.379 200.847 119.282 200.75 119.22C200.653 119.161 200.537 119.142 200.426 119.168C200.316 119.195 200.22 119.263 200.16 119.36V119.36Z" fill="#D2D2D5"/>
<path fill-rule="evenodd" clip-rule="evenodd" d="M223.34 172.78C222.209 167.639 219.081 163.158 214.646 160.322C210.211 157.487 204.831 156.529 199.69 157.66L191.88 159.38C186.747 160.514 182.273 163.637 179.438 168.065C176.604 172.493 175.641 177.863 176.76 183L185.84 224.25L232.42 214L223.34 172.78Z" fill="white"/>
<path fill-rule="evenodd" clip-rule="evenodd" d="M197.37 158.18C202.172 158.135 206.844 159.743 210.6 162.735C214.357 165.726 216.97 169.92 218 174.61L226.95 215.23L185.89 224.28L185.79 223.83L224.73 215.26L215.88 175.08C215.351 172.675 214.353 170.397 212.943 168.377C211.533 166.358 209.739 164.636 207.663 163.31C205.588 161.984 203.271 161.079 200.846 160.649C198.421 160.218 195.935 160.27 193.53 160.8L189.94 161.59C185.923 162.46 182.308 164.637 179.66 167.78C182.498 163.491 186.896 160.478 191.92 159.38L197.37 158.18Z" fill="#D2D2D5"/>
<path fill-rule="evenodd" clip-rule="evenodd" d="M308.75 94.89C307.638 89.8435 304.567 85.4453 300.213 82.6624C295.858 79.8796 290.577 78.9399 285.53 80.05V80.05C283.031 80.5995 280.664 81.6362 278.565 83.1007C276.467 84.5652 274.677 86.4289 273.299 88.5852C271.921 90.7416 270.981 93.1484 270.533 95.668C270.086 98.1877 270.139 100.771 270.69 103.27L276.59 130.09L314.65 121.71L308.75 94.89Z" fill="white"/>
<path fill-rule="evenodd" clip-rule="evenodd" d="M284.51 80.3C284.85 80.21 285.19 80.12 285.51 80.05C285.883 79.97 286.253 79.9 286.62 79.84L289.52 93.12L306.61 89.4C306.979 90.0483 307.313 90.716 307.61 91.4L290 95.25L293.05 109.25L311.05 105.32L311.52 107.45L293.52 111.38L296.64 125.69L294.51 126.16L291.39 111.84L273.39 115.75L272.92 113.63L290.92 109.71L287.92 95.71L270.28 99.55C270.258 98.8026 270.282 98.0546 270.35 97.31L287.45 93.58L284.51 80.3Z" fill="#D2D2D5"/>
<path fill-rule="evenodd" clip-rule="evenodd" d="M283.75 101.11L278.84 107.91C278.772 108.003 278.743 108.119 278.76 108.233C278.777 108.347 278.838 108.45 278.93 108.52C278.976 108.554 279.029 108.579 279.085 108.593C279.141 108.606 279.199 108.609 279.256 108.599C279.313 108.59 279.368 108.569 279.416 108.538C279.465 108.508 279.507 108.467 279.54 108.42L284.46 101.62C284.494 101.575 284.519 101.523 284.532 101.467C284.546 101.412 284.548 101.355 284.539 101.299C284.529 101.242 284.509 101.189 284.478 101.141C284.447 101.093 284.407 101.052 284.36 101.02C284.267 100.952 284.151 100.923 284.037 100.94C283.923 100.957 283.82 101.018 283.75 101.11V101.11ZM281.11 101.11L276.82 107.01C276.753 107.104 276.726 107.221 276.745 107.336C276.764 107.45 276.827 107.552 276.92 107.62C277.014 107.687 277.131 107.714 277.246 107.695C277.36 107.676 277.462 107.614 277.53 107.52L281.81 101.62C281.845 101.574 281.87 101.522 281.885 101.466C281.899 101.411 281.902 101.353 281.894 101.296C281.885 101.239 281.866 101.185 281.836 101.135C281.806 101.086 281.767 101.044 281.72 101.01C281.623 100.945 281.505 100.921 281.39 100.944C281.276 100.966 281.175 101.033 281.11 101.13V101.11Z" fill="#D2D2D5"/>
<path d="M319.445 141.429L287.837 148.454L296.979 189.59L328.588 182.566L319.445 141.429Z" fill="white"/>
<path fill-rule="evenodd" clip-rule="evenodd" d="M313.49 185.89L311.37 186.37L302.64 145.14L304.77 144.67L313.49 185.89Z" fill="#D2D2D5"/>
<path d="M271.741 151.979L240.132 159.004L249.274 200.14L280.883 193.115L271.741 151.979Z" fill="white"/>
<path fill-rule="evenodd" clip-rule="evenodd" d="M266.69 196.25L264.56 196.72L255.2 155.64L257.32 155.16L266.69 196.25Z" fill="#D2D2D5"/>
<path fill-rule="evenodd" clip-rule="evenodd" d="M146.31 184.17L136 189.57L144.45 228.35L156.45 230.68L146.31 184.17ZM133.15 123.79C132.89 122.438 132.137 121.231 131.037 120.403C129.937 119.575 128.568 119.186 127.197 119.311C125.826 119.435 124.55 120.065 123.618 121.078C122.685 122.09 122.162 123.413 122.15 124.79C122.115 125.72 122.195 126.65 122.39 127.56L130 162.06L140 155.21L133.15 123.79Z" fill="white"/>
<path fill-rule="evenodd" clip-rule="evenodd" d="M190.21 244.36L185.64 223.43C185.605 223.288 185.599 223.141 185.622 222.997C185.645 222.853 185.697 222.716 185.774 222.592C185.851 222.468 185.952 222.361 186.072 222.278C186.191 222.194 186.326 222.135 186.468 222.104C186.611 222.073 186.758 222.071 186.901 222.099C187.045 222.126 187.181 222.181 187.302 222.262C187.424 222.343 187.528 222.447 187.608 222.569C187.688 222.69 187.743 222.827 187.77 222.97L192.33 243.89L190.21 244.36ZM206.71 240.72L204.41 230.17L196.67 231.86H196.43C196.311 231.852 196.193 231.829 196.08 231.79V231.79C195.843 231.779 195.615 231.69 195.434 231.536C195.253 231.382 195.129 231.173 195.08 230.94L193.08 221.65C193.021 221.366 193.075 221.071 193.233 220.827C193.39 220.584 193.637 220.412 193.92 220.35C194.201 220.29 194.494 220.344 194.736 220.5C194.977 220.655 195.148 220.9 195.21 221.18L197.01 229.42L205.01 227.78L242.42 219.62L240.8 212.17L229.45 214.65C229.171 214.702 228.883 214.643 228.647 214.486C228.411 214.329 228.245 214.086 228.185 213.809C228.125 213.531 228.176 213.242 228.326 213.001C228.476 212.76 228.715 212.588 228.99 212.52L241.4 209.81C241.682 209.753 241.975 209.81 242.216 209.967C242.458 210.124 242.628 210.369 242.69 210.65L244.55 219.16L251.8 217.58C251.94 217.549 252.085 217.546 252.226 217.571C252.367 217.596 252.501 217.648 252.622 217.726C252.743 217.803 252.847 217.903 252.929 218.02C253.011 218.138 253.069 218.27 253.1 218.41L255.61 229.91L253.48 230.38L251.21 220L206.54 229.74L208.84 240.28L206.71 240.72Z" fill="white"/>
<path fill-rule="evenodd" clip-rule="evenodd" d="M249.68 120.27C249.517 119.429 249.19 118.628 248.717 117.913C248.244 117.198 247.635 116.583 246.925 116.104C246.214 115.625 245.416 115.29 244.576 115.12C243.737 114.949 242.871 114.946 242.03 115.11L241.5 115.21C239.799 115.541 238.3 116.534 237.33 117.97C236.361 119.407 236.001 121.169 236.33 122.87L238.25 132.72L251.6 130.12L249.68 120.27Z" fill="white"/>
<path fill-rule="evenodd" clip-rule="evenodd" d="M245.59 121.07L241.44 128.12C241.382 128.221 241.366 128.341 241.396 128.453C241.426 128.565 241.499 128.661 241.6 128.72C241.649 128.749 241.704 128.767 241.76 128.774C241.816 128.782 241.874 128.778 241.928 128.763C241.983 128.748 242.035 128.723 242.08 128.688C242.124 128.653 242.162 128.609 242.19 128.56L246.34 121.56C246.385 121.462 246.392 121.35 246.36 121.246C246.328 121.143 246.259 121.055 246.166 120.999C246.074 120.944 245.963 120.924 245.857 120.944C245.751 120.965 245.656 121.024 245.59 121.11V121.07ZM243.14 121.07L240.39 125.62C240.334 125.72 240.318 125.838 240.346 125.95C240.374 126.061 240.443 126.158 240.54 126.22C240.589 126.251 240.644 126.271 240.701 126.28C240.758 126.289 240.816 126.286 240.872 126.272C240.928 126.258 240.98 126.233 241.027 126.198C241.073 126.164 241.111 126.12 241.14 126.07L243.88 121.53C243.92 121.482 243.95 121.425 243.967 121.365C243.984 121.304 243.987 121.24 243.977 121.178C243.967 121.116 243.944 121.056 243.909 121.004C243.874 120.952 243.828 120.907 243.775 120.874C243.721 120.841 243.661 120.819 243.599 120.811C243.536 120.803 243.473 120.809 243.413 120.827C243.353 120.846 243.297 120.877 243.25 120.919C243.203 120.961 243.165 121.012 243.14 121.07V121.07Z" fill="#D2D2D5"/>
<path fill-rule="evenodd" clip-rule="evenodd" d="M151.38 23.62C151.38 23.62 142.23 23.62 149.17 41.48L162.17 38.35L151.38 23.62Z" fill="#80B1AE"/>
<path fill-rule="evenodd" clip-rule="evenodd" d="M149.17 24.1C149.17 24.1 156.54 22.48 173.46 72.92L265.94 50.92C265.94 50.92 254.91 7 243 0L149.17 24.1Z" fill="#AACFCC"/>
<path d="M179.42 51.7C182.273 52.4917 185.314 52.2436 188 51C191.38 49.44 192.56 47.44 191.54 45C190.7 43 189.03 42.35 186.54 43C185.42 43.32 184.19 43.68 182.85 44C180.804 44.6487 178.596 44.571 176.6 43.78C174.791 42.9959 173.357 41.5404 172.6 39.72C172.095 38.702 171.817 37.5867 171.784 36.4508C171.751 35.315 171.965 34.1855 172.41 33.14C173.48 30.8756 175.387 29.1152 177.73 28.23C180.778 26.8777 184.172 26.5073 187.44 27.17L186.69 31.44C184.195 31.0064 181.628 31.3052 179.3 32.3C178.19 32.7437 177.261 33.5464 176.66 34.58C176.385 35.1098 176.241 35.698 176.241 36.295C176.241 36.892 176.385 37.4802 176.66 38.01C176.833 38.3931 177.08 38.7381 177.387 39.0248C177.695 39.3115 178.056 39.5342 178.45 39.68C179.555 40.0377 180.745 40.0377 181.85 39.68C182.62 39.49 183.67 39.19 184.98 38.79C187.137 38.0104 189.512 38.0928 191.61 39.02C193.371 39.8798 194.763 41.3463 195.53 43.15C197.637 48.2367 195.707 52.1533 189.74 54.9C186.103 56.6029 181.964 56.902 178.12 55.74L179.42 51.7Z" fill="black"/>
<path fill-rule="evenodd" clip-rule="evenodd" d="M175.16 25.45L187 59.64L189.06 58.93L177.22 24.74L175.16 25.45Z" fill="black"/>
<path fill-rule="evenodd" clip-rule="evenodd" d="M178.76 24.21L190.61 58.4L192.67 57.69L180.82 23.5L178.76 24.21Z" fill="black"/>
<path fill-rule="evenodd" clip-rule="evenodd" d="M194.3 24.2L216.36 18.6L216.79 20.29L194 26.09C193.794 26.1337 193.579 26.1009 193.395 25.9979C193.211 25.8949 193.071 25.7287 193 25.53L191.51 21.21C191.471 21.0959 191.455 20.9752 191.464 20.8549C191.473 20.7347 191.505 20.6174 191.56 20.51C191.617 20.4042 191.695 20.3114 191.79 20.2374C191.885 20.1634 191.994 20.1098 192.11 20.08L214.85 14.31L215.28 16L193.46 21.53L194.3 24.2Z" fill="black"/>
<path fill-rule="evenodd" clip-rule="evenodd" d="M241 9.45L215.19 16L214.76 14.31L241.32 7.56C241.526 7.5185 241.74 7.55216 241.924 7.65488C242.107 7.7576 242.248 7.9226 242.32 8.12L243.81 12.45C243.848 12.5641 243.863 12.6849 243.852 12.8048C243.842 12.9247 243.807 13.0412 243.75 13.1472C243.693 13.2531 243.614 13.3461 243.52 13.4206C243.425 13.495 243.316 13.5493 243.2 13.58L216.75 20.29L216.32 18.6L241.85 12.12L241 9.45Z" fill="black"/>
<path fill-rule="evenodd" clip-rule="evenodd" d="M195.74 34.42L216.22 29.22L216.65 30.91L195.39 36.31C195.184 36.3537 194.969 36.3209 194.785 36.2179C194.601 36.1149 194.461 35.9487 194.39 35.75L192.9 31.42C192.862 31.3065 192.848 31.1864 192.858 31.0671C192.869 30.9479 192.904 30.8321 192.961 30.727C193.018 30.6218 193.096 30.5296 193.191 30.4562C193.285 30.3827 193.394 30.3295 193.51 30.3L216.26 24.52L216.69 26.21L194.86 31.75L195.74 34.42Z" fill="black"/>
<path fill-rule="evenodd" clip-rule="evenodd" d="M246.86 18.54L216.65 26.21L216.22 24.52L247.22 16.66C247.426 16.6141 247.642 16.6458 247.827 16.7491C248.011 16.8524 248.151 17.0201 248.22 17.22L249.71 21.54C249.751 21.654 249.768 21.7755 249.759 21.8964C249.75 22.0173 249.716 22.135 249.658 22.2417C249.601 22.3485 249.521 22.4418 249.425 22.5156C249.329 22.5894 249.218 22.642 249.1 22.67L216.63 30.91L216.2 29.22L247.76 21.22L246.86 18.54Z" fill="black"/>
<path fill-rule="evenodd" clip-rule="evenodd" d="M208 41.89L226 37.31L226.42 39L207.6 43.77C207.394 43.8182 207.176 43.7875 206.991 43.6839C206.806 43.5803 206.667 43.4113 206.6 43.21L205.1 38.89C205.06 38.7757 205.045 38.6542 205.055 38.5336C205.066 38.413 205.101 38.2959 205.16 38.19C205.218 38.0846 205.296 37.9921 205.391 37.9181C205.485 37.8442 205.594 37.7904 205.71 37.76L223.93 33.14L224.36 34.83L207.06 39.22L208 41.89Z" fill="black"/>
<path fill-rule="evenodd" clip-rule="evenodd" d="M251.4 28L224.4 34.87L223.97 33.18L251.78 26.12C251.986 26.0763 252.201 26.1091 252.385 26.2121C252.569 26.3151 252.709 26.4813 252.78 26.68L254.28 31C254.321 31.114 254.338 31.2355 254.329 31.3564C254.32 31.4773 254.286 31.595 254.228 31.7017C254.171 31.8085 254.091 31.9018 253.995 31.9756C253.899 32.0494 253.788 32.102 253.67 32.13L226.46 39L226 37.31L252.29 30.63L251.4 28Z" fill="black"/>
<path fill-rule="evenodd" clip-rule="evenodd" d="M205.15 53.2L228.74 47.2L229.17 48.89L204.8 55.09C204.594 55.1337 204.379 55.1009 204.195 54.9979C204.011 54.8949 203.871 54.7287 203.8 54.53L202.3 50.21C202.263 50.0953 202.249 49.9742 202.259 49.8539C202.269 49.7336 202.304 49.6167 202.36 49.51C202.419 49.4056 202.498 49.3139 202.592 49.2402C202.687 49.1664 202.795 49.1119 202.91 49.08L227.21 42.91L227.64 44.6L204.26 50.54L205.15 53.2Z" fill="black"/>
<path fill-rule="evenodd" clip-rule="evenodd" d="M255.51 37.52L227.61 44.6L227.18 42.91L255.86 35.63C256.066 35.5841 256.282 35.6158 256.467 35.7191C256.651 35.8224 256.791 35.9901 256.86 36.19L258.36 40.52C258.4 40.6325 258.416 40.7525 258.405 40.8716C258.395 40.9906 258.359 41.1061 258.3 41.21C258.243 41.3169 258.165 41.4111 258.07 41.4867C257.976 41.5624 257.867 41.6179 257.75 41.65L229.14 48.91L228.71 47.22L256.4 40.22L255.51 37.52Z" fill="black"/>
<path fill-rule="evenodd" clip-rule="evenodd" d="M82.07 174.68L131 244.46C133.138 247.508 135.88 250.083 139.056 252.025C142.232 253.967 145.773 255.235 149.46 255.75L166.62 258.16C167.795 258.324 168.993 258.165 170.084 257.697C171.175 257.23 172.118 256.474 172.81 255.51L178.92 246.95L184.63 245.35C184.988 245.254 185.299 245.032 185.506 244.726C185.714 244.419 185.804 244.048 185.76 243.68C185.593 242.733 185.057 241.892 184.27 241.34C182.82 240.2 181.19 239.93 165.98 242.17C165.98 242.17 166.61 226.94 152.4 225.38L140.21 203.56L82.07 174.68Z" fill="#FFC5BD"/>
<path fill-rule="evenodd" clip-rule="evenodd" d="M178.92 247L177.12 249.52L169.05 251.3L167.75 254.46C167.62 254.693 167.408 254.871 167.156 254.958C166.903 255.046 166.627 255.038 166.38 254.935C166.134 254.833 165.933 254.643 165.817 254.403C165.701 254.162 165.677 253.887 165.75 253.63L166.47 251.88L153.31 254.79C153.17 254.821 153.026 254.824 152.885 254.799C152.744 254.774 152.609 254.721 152.488 254.644C152.244 254.489 152.072 254.242 152.01 253.96C151.948 253.678 152 253.382 152.156 253.138C152.311 252.894 152.558 252.722 152.84 252.66L180.79 246.47H180.87L178.92 247ZM165.92 240.05C166.003 240.77 166.037 241.495 166.02 242.22L168.02 241.93L164.08 242.54C163.804 242.564 163.53 242.482 163.313 242.311C163.095 242.14 162.951 241.893 162.909 241.619C162.867 241.346 162.931 241.067 163.087 240.839C163.243 240.61 163.48 240.45 163.75 240.39L165.92 240.05Z" fill="#F2887B"/>
<path fill-rule="evenodd" clip-rule="evenodd" d="M82.21 174.75C82.27 174.81 82.31 174.87 82.36 174.93C101.84 205.11 130.76 204.87 140.36 203.85L141.51 205.91C134.27 206.82 112.89 207.8 94 191.7L82.06 174.7L82.21 174.75Z" fill="#F2887B"/>
<path fill-rule="evenodd" clip-rule="evenodd" d="M46.42 256.28C42.27 242.56 39.42 229.28 38.68 217.55C37.68 200.68 47.29 189.15 59.97 187.64C63.7918 187.133 67.6793 187.535 71.3163 188.814C74.9532 190.093 78.2369 192.212 80.9 195V194.92C80.9 194.92 111.35 223.4 130.4 262.19C132.998 267.496 133.99 273.446 133.255 279.308C132.519 285.17 130.088 290.69 126.26 295.19C133.582 316.687 139.77 338.554 144.8 360.7C144.8 360.7 153.71 362.45 158.3 368.17H98.85C98.3141 368.17 97.7874 368.03 97.3225 367.763C96.8576 367.496 96.4706 367.113 96.2 366.65C92.78 360.65 79.95 337.93 67.26 310.07C53.33 306.66 36.34 299.51 15.94 286.34C15.94 286.34 8.94002 291.41 2.33002 291.43L30.84 251.8C31.1572 251.359 31.6144 251.037 32.1372 250.888C32.66 250.74 33.2178 250.772 33.72 250.98L46.42 256.28Z" fill="url(#paint0_linear)"/>
<path fill-rule="evenodd" clip-rule="evenodd" d="M129.89 261.06L130.43 262.15C130.6 262.51 130.77 262.87 130.93 263.24H116.24C115.951 263.24 115.674 263.125 115.469 262.921C115.265 262.716 115.15 262.439 115.15 262.15C115.15 261.861 115.265 261.584 115.469 261.379C115.674 261.175 115.951 261.06 116.24 261.06H129.89Z" fill="#F2887B"/>
<path fill-rule="evenodd" clip-rule="evenodd" d="M43.66 255.13L46.42 256.28C51.28 269.22 68.32 312.39 67.26 310.07C66.44 309.87 65.6 309.65 64.75 309.42C58.29 294 46.74 263.33 43.66 255.13ZM86.17 200.13C88.31 202.36 91.01 205.26 94.07 208.75C109.84 236.1 117.19 264.62 127.84 293.15C127.35 293.82 126.84 294.48 126.29 295.15C125.41 295.65 103.88 222.31 86.17 200.13V200.13Z" fill="#F28476"/>
<path fill-rule="evenodd" clip-rule="evenodd" d="M116.94 267C117.19 267.67 117.45 268.34 117.71 269L117.76 269.15L50.6101 269.09V269C50.3801 268.35 50.1501 267.69 49.9301 267V266.88L117 266.94L116.94 267Z" fill="#F28476"/>
<path fill-rule="evenodd" clip-rule="evenodd" d="M67.24 109.73C72.59 107.9 92.3 105.66 101.05 126.52C102.81 130.69 113.91 163.89 141.05 160.92C141.05 160.92 152.92 160.1 168.44 148.54C168.44 148.54 187.21 134.1 206.89 131.8C207.348 131.749 207.811 131.792 208.251 131.926C208.691 132.061 209.1 132.284 209.451 132.581C209.802 132.879 210.089 133.245 210.293 133.658C210.498 134.07 210.616 134.52 210.64 134.98C210.73 136.51 209.87 138.32 206.48 139.88C206.48 139.88 196.15 143.63 192.48 147.03C192.48 147.03 198.34 144.89 200.31 149.38C200.66 150.18 201.52 153.72 197.31 156.38C197.31 156.38 202.31 155.18 203.65 159.03C204.3 160.97 204.07 163.2 200.26 165.57C200.26 165.57 202.75 165.21 203.65 167.13C204.46 168.86 204.08 170.77 197.31 176.41C190.54 182.05 158 205.27 135.08 204.18C112.16 203.09 93.18 191.18 81.19 173.69C81.19 173.69 58.07 184.19 43.93 163.69C39.81 157.77 31.11 122.11 67.24 109.73Z" fill="#FFC5BD"/>
<path fill-rule="evenodd" clip-rule="evenodd" d="M194.65 159C196.202 161.678 197.202 164.639 197.59 167.71C197.627 167.985 197.768 168.235 197.984 168.41C198.199 168.585 198.474 168.671 198.75 168.65C199.027 168.63 199.286 168.505 199.473 168.3C199.661 168.096 199.763 167.827 199.76 167.55C199.335 164.143 198.234 160.855 196.52 157.88C196.21 157.36 195.64 157.57 195.12 157.88C194.6 158.19 194.34 158.5 194.65 159Z" fill="#FD9909"/>
<path fill-rule="evenodd" clip-rule="evenodd" d="M195.79 168.15C198.54 166.65 199.54 166.05 200.36 165.6C201.325 165.475 202.301 165.722 203.09 166.29C201.104 167.706 199.011 168.966 196.83 170.06C196.703 170.153 196.558 170.217 196.405 170.248C196.251 170.279 196.093 170.277 195.94 170.242C195.787 170.206 195.644 170.138 195.52 170.042C195.396 169.946 195.294 169.824 195.221 169.685C195.149 169.547 195.107 169.394 195.099 169.237C195.09 169.08 195.116 168.924 195.174 168.778C195.232 168.632 195.32 168.501 195.433 168.392C195.547 168.284 195.682 168.201 195.83 168.15H195.79ZM192.92 158.63C196.38 156.94 196.6 156.79 197.41 156.41C198.476 156.195 199.574 156.195 200.64 156.41C198.607 158.142 196.325 159.558 193.87 160.61C193.609 160.734 193.309 160.75 193.035 160.655C192.762 160.559 192.537 160.36 192.41 160.1C192.344 159.971 192.305 159.829 192.295 159.684C192.285 159.539 192.305 159.394 192.352 159.257C192.4 159.119 192.475 158.993 192.572 158.885C192.67 158.778 192.788 158.691 192.92 158.63ZM188.76 149C190.76 147.94 191.76 147.42 192.53 147C193.931 146.522 195.426 146.389 196.89 146.61C193.89 148.43 192.41 149.54 189.77 150.92C189.642 150.999 189.5 151.051 189.351 151.072C189.203 151.093 189.051 151.084 188.906 151.044C188.762 151.004 188.627 150.935 188.51 150.84C188.394 150.745 188.298 150.628 188.229 150.495C188.16 150.361 188.119 150.215 188.109 150.065C188.099 149.916 188.12 149.765 188.171 149.624C188.222 149.483 188.301 149.354 188.404 149.244C188.507 149.135 188.632 149.049 188.77 148.99L188.76 149Z" fill="#F2887B"/>
<path fill-rule="evenodd" clip-rule="evenodd" d="M81.18 173.69C80.77 173.88 57.94 184.01 43.93 163.69C39.81 157.69 31.11 122.07 67.24 109.69C72.59 107.86 92.3 105.62 101.05 126.48C103.146 132.207 105.827 137.703 109.05 142.88L74.77 161.36C76.12 165.57 78.63 169.6 81.18 173.69Z" fill="#FF9F69"/>
<path fill-rule="evenodd" clip-rule="evenodd" d="M72 176.1C67 161.7 68.35 152.86 69.49 149.02C69.5301 148.898 69.6101 148.793 69.7172 148.722C69.8243 148.652 69.9521 148.619 70.08 148.63C70.2086 148.645 70.3287 148.702 70.4211 148.792C70.5135 148.883 70.573 149.002 70.59 149.13C71.5895 153.528 73.0683 157.804 75 161.88C76.0527 164.71 77.393 167.424 79 169.98C79.87 171.59 80.64 172.9 81.2 173.73C78.2536 174.929 75.1591 175.726 72 176.1V176.1Z" fill="#AF2B18"/>
<path fill-rule="evenodd" clip-rule="evenodd" d="M75.57 159.58L78.62 165.21C78.7741 165.421 78.9987 165.569 79.253 165.629C79.5073 165.688 79.7744 165.654 80.0057 165.533C80.237 165.411 80.4172 165.211 80.5134 164.969C80.6096 164.726 80.6155 164.457 80.53 164.21L77.53 158.58C77.4647 158.445 77.3723 158.324 77.2586 158.226C77.1448 158.128 77.0122 158.054 76.8689 158.009C76.7255 157.964 76.5745 157.949 76.425 157.965C76.2756 157.98 76.131 158.026 76 158.1C75.7468 158.239 75.5592 158.473 75.4786 158.751C75.398 159.028 75.4308 159.327 75.57 159.58ZM81.42 156.58L84.21 162.34C84.336 162.605 84.5622 162.81 84.8388 162.908C85.1154 163.006 85.4198 162.991 85.685 162.865C85.9502 162.739 86.1546 162.513 86.253 162.236C86.3515 161.96 86.336 161.655 86.21 161.39L83.42 155.63C83.2947 155.371 83.0719 155.171 82.8002 155.076C82.5285 154.98 82.2301 154.996 81.97 155.12C81.7104 155.24 81.5078 155.457 81.4051 155.723C81.3024 155.99 81.3078 156.287 81.42 156.55V156.58ZM87.28 153.19L90.14 158.91C90.2726 159.175 90.5052 159.377 90.7865 159.471C91.0678 159.564 91.3748 159.543 91.64 159.41C91.9052 159.277 92.1069 159.045 92.2007 158.764C92.2945 158.482 92.2726 158.175 92.14 157.91L89.28 152.19C89.2173 152.061 89.1295 151.946 89.0218 151.851C88.9141 151.757 88.7886 151.685 88.6527 151.639C88.5168 151.593 88.3732 151.575 88.2302 151.586C88.0873 151.596 87.9478 151.635 87.82 151.7C87.6886 151.76 87.5704 151.846 87.4722 151.952C87.3739 152.058 87.2975 152.182 87.2474 152.318C87.1972 152.454 87.1743 152.598 87.1799 152.742C87.1855 152.887 87.2195 153.029 87.28 153.16V153.19ZM93.15 150L96.15 155.66C96.2946 155.894 96.5221 156.064 96.7869 156.137C97.0517 156.21 97.3344 156.181 97.5783 156.054C97.8223 155.928 98.0095 155.714 98.1025 155.455C98.1955 155.197 98.1875 154.913 98.08 154.66L95.08 148.99C94.9422 148.735 94.7096 148.545 94.4325 148.461C94.1554 148.377 93.8563 148.405 93.6 148.54C93.4746 148.606 93.3634 148.697 93.2729 148.806C93.1824 148.915 93.1143 149.041 93.0725 149.177C93.0307 149.312 93.0161 149.455 93.0294 149.596C93.0427 149.737 93.0837 149.875 93.15 150ZM98.98 146.9L101.98 152.57C102.039 152.708 102.125 152.833 102.235 152.936C102.344 153.039 102.473 153.118 102.614 153.169C102.755 153.22 102.906 153.241 103.055 153.231C103.205 153.221 103.351 153.18 103.485 153.111C103.618 153.042 103.736 152.947 103.83 152.83C103.925 152.713 103.994 152.578 104.034 152.434C104.074 152.289 104.083 152.137 104.062 151.989C104.041 151.84 103.989 151.698 103.91 151.57L100.91 145.9C100.851 145.762 100.765 145.637 100.656 145.534C100.546 145.431 100.417 145.352 100.276 145.301C100.135 145.25 99.9844 145.229 99.8347 145.239C99.6849 145.249 99.5387 145.29 99.4054 145.359C99.2721 145.428 99.1545 145.523 99.06 145.64C98.9655 145.757 98.8961 145.892 98.8562 146.036C98.8162 146.181 98.8066 146.333 98.8279 146.481C98.8492 146.63 98.901 146.772 98.98 146.9V146.9ZM104.81 143.81L107.81 149.48C107.946 149.736 108.178 149.929 108.455 150.015C108.732 150.101 109.033 150.074 109.29 149.94C109.544 149.804 109.734 149.573 109.818 149.298C109.903 149.022 109.874 148.725 109.74 148.47L106.74 142.8C106.681 142.662 106.595 142.537 106.486 142.434C106.376 142.331 106.247 142.252 106.106 142.201C105.965 142.15 105.814 142.129 105.665 142.139C105.515 142.149 105.369 142.19 105.235 142.259C105.102 142.328 104.985 142.424 104.89 142.54C104.796 142.657 104.726 142.792 104.686 142.936C104.646 143.081 104.637 143.233 104.658 143.381C104.679 143.53 104.731 143.672 104.81 143.8V143.81Z" fill="#F28476"/>
<path d="M66.43 104.13C75.2003 104.13 82.31 97.0203 82.31 88.25C82.31 79.4797 75.2003 72.37 66.43 72.37C57.6598 72.37 50.55 79.4797 50.55 88.25C50.55 97.0203 57.6598 104.13 66.43 104.13Z" fill="#FFC5BD"/>
<path fill-rule="evenodd" clip-rule="evenodd" d="M54.19 85C54.29 85.17 53.8 84.92 53.6 84.88C53.07 84.78 52.54 84.62 52.01 84.48C50.6 84.1 49.22 83.64 47.84 83.13C43.62 81.57 39.45 79.86 35.33 78.06C26.26 74.14 6.16002 63.61 1.21002 77.9C0.579648 79.7147 0.189665 81.6041 0.050024 83.52C-0.13586 86.6631 0.376397 89.8083 1.55002 92.73C7.16002 107.23 17.4 106.27 29.88 101.59C38.88 98.23 46.63 93.59 54.79 88.67" fill="black"/>
<path fill-rule="evenodd" clip-rule="evenodd" d="M55.53 99.79C52.7175 97.1004 50.9906 93.4716 50.6771 89.5927C50.3636 85.7137 51.4853 81.8547 53.8293 78.7483C56.1733 75.6419 59.5764 73.5043 63.3925 72.7414C67.2085 71.9785 71.1719 72.6435 74.53 74.61C73.94 80 70.84 93.76 55.53 99.79Z" fill="black"/>
<path fill-rule="evenodd" clip-rule="evenodd" d="M382.71 174.94C388.103 173.497 393.186 171.081 397.71 167.81C403.33 163.696 407.199 157.62 408.549 150.787C409.899 143.954 408.633 136.863 405 130.92C396.6 117.19 379.2 96.67 356.26 111.81C351.17 115.17 341.33 122.64 338.45 157.13C338.45 157.13 338.67 186.78 315.13 189.62C294.32 192.13 276.48 201.04 270.66 208.69C270.431 208.989 270.283 209.342 270.23 209.714C270.177 210.087 270.22 210.467 270.355 210.818C270.491 211.169 270.714 211.48 271.004 211.72C271.293 211.96 271.64 212.122 272.01 212.19L281.18 213.94C281.18 213.94 278.86 217.56 270.4 223.94C270.4 223.94 263.55 228.3 264.31 234.5C264.35 234.808 264.455 235.105 264.617 235.37C264.778 235.635 264.994 235.863 265.25 236.04C265.508 236.214 265.801 236.331 266.108 236.381C266.415 236.431 266.73 236.413 267.03 236.33C268.29 235.83 270.25 234.97 273.16 233.47C275.763 234.343 278.528 234.628 281.255 234.305C283.982 233.981 286.603 233.058 288.93 231.6C288.93 231.6 336.93 231.95 366.93 203.99C372.61 198.61 379.31 190.6 382.71 174.94Z" fill="#FFB000"/>
<path fill-rule="evenodd" clip-rule="evenodd" d="M298 231.11L295.69 228.52C295.582 228.416 295.497 228.291 295.44 228.152C295.382 228.014 295.354 227.865 295.357 227.715C295.36 227.565 295.393 227.418 295.456 227.281C295.518 227.145 295.608 227.023 295.72 226.923C295.832 226.823 295.963 226.748 296.105 226.701C296.247 226.654 296.398 226.636 296.547 226.65C296.696 226.664 296.841 226.708 296.972 226.781C297.104 226.853 297.219 226.951 297.31 227.07L300.69 230.84L298 231.11Z" fill="#FFCF84"/>
<path fill-rule="evenodd" clip-rule="evenodd" d="M273.14 233.45C272.71 233.67 291.43 220.52 291.43 220.52C291.548 220.438 291.681 220.381 291.822 220.35C291.962 220.32 292.107 220.318 292.248 220.344C292.389 220.37 292.524 220.424 292.645 220.502C292.765 220.58 292.869 220.682 292.95 220.8C293.032 220.917 293.089 221.05 293.119 221.189C293.149 221.329 293.151 221.473 293.125 221.613C293.099 221.754 293.046 221.888 292.967 222.007C292.889 222.127 292.788 222.23 292.67 222.31L275.67 234.12C274.807 233.981 273.959 233.756 273.14 233.45V233.45ZM288.91 231.58C288.36 231.92 297.77 225.13 297.77 225.13C298.008 224.982 298.293 224.93 298.568 224.987C298.842 225.043 299.084 225.203 299.244 225.434C299.403 225.664 299.468 225.947 299.424 226.224C299.381 226.5 299.232 226.75 299.01 226.92L292.49 231.49C290.2 231.59 288.91 231.58 288.91 231.58V231.58ZM278.91 213.51C279.97 212.114 280.72 210.509 281.11 208.8V208.7C281.116 208.627 281.137 208.555 281.17 208.49C281.239 208.306 281.361 208.146 281.52 208.03C281.656 207.915 281.821 207.839 281.997 207.809C282.173 207.779 282.353 207.797 282.52 207.86C282.689 207.904 282.844 207.992 282.969 208.115C283.093 208.238 283.183 208.391 283.23 208.56C283.294 208.712 283.311 208.879 283.28 209.04C283.28 209.04 283.28 209.11 283.28 209.22C283.12 209.99 281.28 213.94 281.28 213.94L278.91 213.51ZM283.26 209.13C283.249 209.185 283.233 209.239 283.21 209.29C283.216 209.267 283.216 209.243 283.21 209.22C283.207 209.193 283.207 209.167 283.21 209.14L283.26 209.13Z" fill="#FD8509"/>
<path fill-rule="evenodd" clip-rule="evenodd" d="M325.64 185.82C338.58 177.09 338.43 157.13 338.43 157.13C341.31 122.64 351.15 115.13 356.24 111.81C379.18 96.67 396.58 117.19 404.98 130.92C408.619 136.856 409.895 143.942 408.556 150.774C407.217 157.607 403.36 163.687 397.75 167.81C393.226 171.081 388.143 173.497 382.75 174.94C379.35 190.6 372.65 198.61 366.92 203.94C362.145 208.36 356.877 212.215 351.22 215.43L325.64 185.82Z" fill="#FD9909"/>
<path fill-rule="evenodd" clip-rule="evenodd" d="M382.71 174.94C382.71 174.94 383.94 159.48 383.29 148.4C383.276 148.19 383.337 147.981 383.463 147.812C383.588 147.642 383.77 147.523 383.975 147.475C384.181 147.427 384.396 147.453 384.584 147.549C384.772 147.646 384.919 147.805 385 148C387.24 153.52 390.48 162.67 391.49 171.65C388.691 173.061 385.747 174.164 382.71 174.94V174.94Z" fill="#D84B26"/>
<path d="M360.55 100.77C368.967 100.77 375.79 93.9468 375.79 85.53C375.79 77.1132 368.967 70.29 360.55 70.29C352.133 70.29 345.31 77.1132 345.31 85.53C345.31 93.9468 352.133 100.77 360.55 100.77Z" fill="#FFB000"/>
<path fill-rule="evenodd" clip-rule="evenodd" d="M355.12 71.29C358.742 69.9272 362.747 69.9936 366.323 71.4757C369.898 72.9578 372.775 75.7446 374.371 79.2706C375.967 82.7966 376.161 86.7975 374.915 90.4616C373.668 94.1256 371.075 97.1783 367.66 99L364.07 91.08C364.706 91.0687 365.329 90.8967 365.88 90.58C366.299 90.4018 366.677 90.1374 366.987 89.804C367.298 89.4706 367.535 89.0756 367.683 88.6447C367.831 88.2137 367.886 87.7565 367.846 87.3026C367.806 86.8487 367.671 86.4084 367.45 86.0101C367.228 85.6118 366.926 85.2645 366.562 84.9908C366.197 84.717 365.78 84.5229 365.335 84.4211C364.891 84.3192 364.431 84.3119 363.984 84.3996C363.536 84.4873 363.113 84.668 362.74 84.93C362.338 85.1515 361.977 85.4388 361.67 85.78L355.12 71.29Z" fill="black"/>
<path fill-rule="evenodd" clip-rule="evenodd" d="M419.34 180.69C409.02 176.42 394.21 176.83 368.69 211.69C364.04 218.06 308.37 281.69 299.88 311.78C297.82 319.07 292.32 335.56 291.53 361.2C286.53 362.44 282.25 364.4 279.88 368.2H339.21C340.095 368.197 340.948 367.866 341.603 367.272C342.259 366.677 342.671 365.861 342.76 364.98C343.76 356.91 348.5 334.82 371.19 311.79C371.19 311.79 404.96 347.48 433.79 359.19C425.95 361.25 421.71 364.43 419.34 368.19H449.34C450.29 368.19 451.223 367.934 452.039 367.448C452.856 366.962 453.527 366.265 453.98 365.43L466.98 341.43C467.448 340.563 467.625 339.569 467.487 338.593C467.348 337.618 466.901 336.713 466.21 336.01C458.99 328.66 436.83 306.01 419.31 287.77C426 266.54 432.6 244.67 438.54 218.28C439.743 212.949 439.631 207.405 438.215 202.127C436.798 196.848 434.12 191.993 430.41 187.98C427.33 184.65 424.36 182.77 419.34 180.69Z" fill="url(#paint1_linear)"/>
<path fill-rule="evenodd" clip-rule="evenodd" d="M419.93 285.91C419.73 286.54 419.54 287.17 419.34 287.8L423.62 292.26L417.34 297.96C417.19 298.092 417.001 298.17 416.802 298.183C416.603 298.196 416.405 298.142 416.24 298.03C416.084 297.921 415.967 297.766 415.906 297.586C415.844 297.406 415.843 297.211 415.9 297.03L419.93 285.91Z" fill="#D9512E"/>
<path fill-rule="evenodd" clip-rule="evenodd" d="M455.61 325.19L457.14 326.75L430.51 357.75C429.83 357.43 429.15 357.11 428.51 356.75L455.61 325.19ZM292.46 347.38L345.94 351.38C345.7 352.11 345.47 352.82 345.26 353.52L292.26 349.52C292.31 348.81 292.38 348.09 292.46 347.38ZM387.3 190.26C378.77 200.26 363.3 232.2 359.63 262.58C357.19 282.84 360.01 302.43 374 314.18C374.132 314.281 374.237 314.414 374.305 314.566C374.373 314.717 374.403 314.884 374.39 315.05C372.34 313 371.19 311.78 371.19 311.78L369.78 313.23C357.67 300.87 355.11 281.92 357.46 262.32C360.33 238.43 370.46 213.61 378.89 198.89C381.53 195.859 384.338 192.978 387.3 190.26V190.26Z" fill="#FD9409"/>
<path fill-rule="evenodd" clip-rule="evenodd" d="M207.55 139.34C208.8 141.352 209.674 143.575 210.13 145.9C210.282 146.261 210.301 146.664 210.183 147.038C210.065 147.412 209.818 147.731 209.486 147.939C209.154 148.147 208.759 148.23 208.371 148.174C207.984 148.117 207.629 147.924 207.37 147.63C205.85 146.69 203.67 144.26 201.69 141.12C199.71 137.98 198.47 134.95 198.28 133.12C198.134 132.761 198.12 132.362 198.239 131.993C198.358 131.625 198.603 131.309 198.93 131.103C199.258 130.897 199.649 130.813 200.032 130.865C200.416 130.917 200.769 131.103 201.03 131.39C201.541 131.698 202.017 132.06 202.45 132.47L200.97 132.8C200.656 132.532 200.302 132.316 199.92 132.16C199.78 132.11 199.65 132.05 199.56 132.1C199.47 132.15 199.47 132.3 199.46 132.46C199.441 132.888 199.489 133.316 199.6 133.73C200.282 136.11 201.327 138.37 202.7 140.43C203.965 142.557 205.547 144.479 207.39 146.13C207.72 146.406 208.087 146.635 208.48 146.81C208.63 146.81 208.75 146.92 208.85 146.81C208.95 146.7 208.94 146.62 208.95 146.46C208.969 146.032 208.922 145.604 208.81 145.19C208.285 143.292 207.501 141.475 206.48 139.79C206.844 139.659 207.202 139.509 207.55 139.34V139.34Z" fill="black"/>
<path fill-rule="evenodd" clip-rule="evenodd" d="M213.55 150C214.622 150 215.649 150.426 216.407 151.183C217.164 151.941 217.59 152.969 217.59 154.04C217.59 155.111 217.164 156.139 216.407 156.897C215.649 157.654 214.622 158.08 213.55 158.08C213.259 158.06 212.966 158.1 212.691 158.198C212.416 158.296 212.164 158.449 211.951 158.648C211.737 158.847 211.567 159.088 211.451 159.356C211.334 159.624 211.274 159.913 211.274 160.205C211.274 160.497 211.334 160.786 211.451 161.054C211.567 161.322 211.737 161.563 211.951 161.762C212.164 161.961 212.416 162.114 212.691 162.212C212.966 162.31 213.259 162.35 213.55 162.33C215.749 162.33 217.857 161.457 219.412 159.902C220.967 158.347 221.84 156.239 221.84 154.04C221.84 151.841 220.967 149.733 219.412 148.178C217.857 146.623 215.749 145.75 213.55 145.75C213.259 145.73 212.966 145.77 212.691 145.868C212.416 145.966 212.164 146.119 211.951 146.318C211.737 146.517 211.567 146.758 211.451 147.026C211.334 147.294 211.274 147.583 211.274 147.875C211.274 148.167 211.334 148.456 211.451 148.724C211.567 148.992 211.737 149.233 211.951 149.432C212.164 149.631 212.416 149.784 212.691 149.882C212.966 149.98 213.259 150.02 213.55 150V150Z" fill="black"/>
<path fill-rule="evenodd" clip-rule="evenodd" d="M213.55 158.07C212.479 158.07 211.451 157.644 210.693 156.887C209.936 156.129 209.51 155.101 209.51 154.03C209.51 152.959 209.936 151.931 210.693 151.173C211.451 150.416 212.479 149.99 213.55 149.99C214.088 149.953 214.593 149.713 214.961 149.319C215.329 148.924 215.534 148.405 215.534 147.865C215.534 147.325 215.329 146.806 214.961 146.411C214.593 146.017 214.088 145.777 213.55 145.74C211.351 145.74 209.243 146.613 207.688 148.168C206.133 149.723 205.26 151.831 205.26 154.03C205.26 156.229 206.133 158.337 207.688 159.892C209.243 161.447 211.351 162.32 213.55 162.32C214.088 162.283 214.593 162.043 214.961 161.649C215.329 161.254 215.534 160.735 215.534 160.195C215.534 159.655 215.329 159.136 214.961 158.741C214.593 158.347 214.088 158.107 213.55 158.07Z" fill="black"/>
<path fill-rule="evenodd" clip-rule="evenodd" d="M231.33 179.66L231.98 180.73C232.228 181.212 232.283 181.769 232.134 182.29C231.985 182.811 231.643 183.255 231.178 183.533C230.713 183.811 230.16 183.901 229.631 183.785C229.102 183.669 228.637 183.356 228.33 182.91L215 160.73C214.736 160.247 214.669 159.681 214.813 159.15C214.957 158.619 215.301 158.165 215.773 157.882C216.245 157.598 216.808 157.509 217.344 157.632C217.88 157.754 218.348 158.08 218.65 158.54L226.42 171.54L228.36 170.41C228.474 170.34 228.602 170.294 228.734 170.275C228.867 170.255 229.002 170.262 229.131 170.296C229.261 170.329 229.382 170.389 229.489 170.47C229.595 170.552 229.684 170.654 229.75 170.77C230.25 171.65 231.03 172.99 231.53 173.84C231.593 173.948 231.634 174.067 231.651 174.19C231.668 174.314 231.661 174.44 231.629 174.56C231.598 174.681 231.543 174.794 231.467 174.894C231.392 174.993 231.298 175.077 231.19 175.14L229.26 176.26L229.94 177.39L231.94 176.24C232.127 176.14 232.344 176.111 232.55 176.16C232.755 176.216 232.93 176.349 233.04 176.53L233.6 177.53C233.701 177.706 233.73 177.914 233.68 178.11C233.653 178.207 233.608 178.297 233.546 178.376C233.484 178.455 233.407 178.521 233.32 178.57L231.33 179.66Z" fill="black"/>
</g>
<defs>
<linearGradient id="paint0_linear" x1="96.8304" y1="285.408" x2="10.0904" y2="478.398" gradientUnits="userSpaceOnUse">
<stop stop-color="#FFC5BD"/>
<stop offset="1" stop-color="#FF4A31"/>
</linearGradient>
<linearGradient id="paint1_linear" x1="396.136" y1="297.77" x2="475.556" y2="224.02" gradientUnits="userSpaceOnUse">
<stop stop-color="#FFB309"/>
<stop offset="1" stop-color="#FD9909"/>
</linearGradient>
<clipPath id="clip0">
<rect width="467.56" height="368.19" fill="white"/>
</clipPath>
</defs>
</svg>
